<?xml version="1.0" encoding="utf-8"?>
<svg xmlns="http://www.w3.org/2000/svg" xmlns:xlink="http://www.w3.org/1999/xlink" width="600" height="400" viewBox="0 0 2400 1600">
<defs>
  <clipPath id="clip120">
    <rect x="0" y="0" width="2400" height="1600"/>
  </clipPath>
</defs>
<path clip-path="url(#clip120)" d="
M0 1600 L2400 1600 L2400 0 L0 0  Z
  " fill="#ffffff" fill-rule="evenodd" fill-opacity="1"/>
<defs>
  <clipPath id="clip121">
    <rect x="480" y="0" width="1681" height="1600"/>
  </clipPath>
</defs>
<path clip-path="url(#clip120)" d="
M234.125 1423.18 L2352.76 1423.18 L2352.76 123.472 L234.125 123.472  Z
  " fill="#ffffff" fill-rule="evenodd" fill-opacity="1"/>
<defs>
  <clipPath id="clip122">
    <rect x="234" y="123" width="2120" height="1301"/>
  </clipPath>
</defs>
<polyline clip-path="url(#clip122)" style="stroke:#000000; stroke-linecap:round; stroke-linejoin:round; stroke-width:2; stroke-opacity:0.1; fill:none" points="
  294.087,1423.18 294.087,123.472 
  "/>
<polyline clip-path="url(#clip122)" style="stroke:#000000; stroke-linecap:round; stroke-linejoin:round; stroke-width:2; stroke-opacity:0.1; fill:none" points="
  919.074,1423.18 919.074,123.472 
  "/>
<polyline clip-path="url(#clip122)" style="stroke:#000000; stroke-linecap:round; stroke-linejoin:round; stroke-width:2; stroke-opacity:0.1; fill:none" points="
  1544.06,1423.18 1544.06,123.472 
  "/>
<polyline clip-path="url(#clip122)" style="stroke:#000000; stroke-linecap:round; stroke-linejoin:round; stroke-width:2; stroke-opacity:0.1; fill:none" points="
  2169.05,1423.18 2169.05,123.472 
  "/>
<polyline clip-path="url(#clip120)" style="stroke:#000000; stroke-linecap:round; stroke-linejoin:round; stroke-width:4; stroke-opacity:1; fill:none" points="
  234.125,1423.18 2352.76,1423.18 
  "/>
<polyline clip-path="url(#clip120)" style="stroke:#000000; stroke-linecap:round; stroke-linejoin:round; stroke-width:4; stroke-opacity:1; fill:none" points="
  234.125,123.472 2352.76,123.472 
  "/>
<polyline clip-path="url(#clip120)" style="stroke:#000000; stroke-linecap:round; stroke-linejoin:round; stroke-width:4; stroke-opacity:1; fill:none" points="
  294.087,1423.18 294.087,1404.28 
  "/>
<polyline clip-path="url(#clip120)" style="stroke:#000000; stroke-linecap:round; stroke-linejoin:round; stroke-width:4; stroke-opacity:1; fill:none" points="
  919.074,1423.18 919.074,1404.28 
  "/>
<polyline clip-path="url(#clip120)" style="stroke:#000000; stroke-linecap:round; stroke-linejoin:round; stroke-width:4; stroke-opacity:1; fill:none" points="
  1544.06,1423.18 1544.06,1404.28 
  "/>
<polyline clip-path="url(#clip120)" style="stroke:#000000; stroke-linecap:round; stroke-linejoin:round; stroke-width:4; stroke-opacity:1; fill:none" points="
  2169.05,1423.18 2169.05,1404.28 
  "/>
<path clip-path="url(#clip120)" d="M294.087 1454.1 Q290.476 1454.1 288.647 1457.66 Q286.841 1461.2 286.841 1468.33 Q286.841 1475.44 288.647 1479.01 Q290.476 1482.55 294.087 1482.55 Q297.721 1482.55 299.526 1479.01 Q301.355 1475.44 301.355 1468.33 Q301.355 1461.2 299.526 1457.66 Q297.721 1454.1 294.087 1454.1 M294.087 1450.39 Q299.897 1450.39 302.952 1455 Q306.031 1459.58 306.031 1468.33 Q306.031 1477.06 302.952 1481.67 Q299.897 1486.25 294.087 1486.25 Q288.277 1486.25 285.198 1481.67 Q282.142 1477.06 282.142 1468.33 Q282.142 1459.58 285.198 1455 Q288.277 1450.39 294.087 1450.39 Z" fill="#000000" fill-rule="evenodd" fill-opacity="1" /><path clip-path="url(#clip120)" d="M909.351 1451.02 L927.708 1451.02 L927.708 1454.96 L913.634 1454.96 L913.634 1463.43 Q914.652 1463.08 915.671 1462.92 Q916.689 1462.73 917.708 1462.73 Q923.495 1462.73 926.874 1465.9 Q930.254 1469.08 930.254 1474.49 Q930.254 1480.07 926.782 1483.17 Q923.31 1486.25 916.99 1486.25 Q914.814 1486.25 912.546 1485.88 Q910.3 1485.51 907.893 1484.77 L907.893 1480.07 Q909.976 1481.2 912.199 1481.76 Q914.421 1482.32 916.898 1482.32 Q920.902 1482.32 923.24 1480.21 Q925.578 1478.1 925.578 1474.49 Q925.578 1470.88 923.24 1468.77 Q920.902 1466.67 916.898 1466.67 Q915.023 1466.67 913.148 1467.08 Q911.296 1467.5 909.351 1468.38 L909.351 1451.02 Z" fill="#000000" fill-rule="evenodd" fill-opacity="1" /><path clip-path="url(#clip120)" d="M1518.75 1481.64 L1526.39 1481.64 L1526.39 1455.28 L1518.08 1456.95 L1518.08 1452.69 L1526.34 1451.02 L1531.02 1451.02 L1531.02 1481.64 L1538.66 1481.64 L1538.66 1485.58 L1518.75 1485.58 L1518.75 1481.64 Z" fill="#000000" fill-rule="evenodd" fill-opacity="1" /><path clip-path="url(#clip120)" d="M1558.1 1454.1 Q1554.49 1454.1 1552.66 1457.66 Q1550.85 1461.2 1550.85 1468.33 Q1550.85 1475.44 1552.66 1479.01 Q1554.49 1482.55 1558.1 1482.55 Q1561.73 1482.55 1563.54 1479.01 Q1565.37 1475.44 1565.37 1468.33 Q1565.37 1461.2 1563.54 1457.66 Q1561.73 1454.1 1558.1 1454.1 M1558.1 1450.39 Q1563.91 1450.39 1566.97 1455 Q1570.04 1459.58 1570.04 1468.33 Q1570.04 1477.06 1566.97 1481.67 Q1563.91 1486.25 1558.1 1486.25 Q1552.29 1486.25 1549.21 1481.67 Q1546.16 1477.06 1546.16 1468.33 Q1546.16 1459.58 1549.21 1455 Q1552.29 1450.39 1558.1 1450.39 Z" fill="#000000" fill-rule="evenodd" fill-opacity="1" /><path clip-path="url(#clip120)" d="M2144.23 1481.64 L2151.87 1481.64 L2151.87 1455.28 L2143.56 1456.95 L2143.56 1452.69 L2151.83 1451.02 L2156.5 1451.02 L2156.5 1481.64 L2164.14 1481.64 L2164.14 1485.58 L2144.23 1485.58 L2144.23 1481.64 Z" fill="#000000" fill-rule="evenodd" fill-opacity="1" /><path clip-path="url(#clip120)" d="M2173.63 1451.02 L2191.99 1451.02 L2191.99 1454.96 L2177.91 1454.96 L2177.91 1463.43 Q2178.93 1463.08 2179.95 1462.92 Q2180.97 1462.73 2181.99 1462.73 Q2187.77 1462.73 2191.15 1465.9 Q2194.53 1469.08 2194.53 1474.49 Q2194.53 1480.07 2191.06 1483.17 Q2187.59 1486.25 2181.27 1486.25 Q2179.09 1486.25 2176.83 1485.88 Q2174.58 1485.51 2172.17 1484.77 L2172.17 1480.07 Q2174.26 1481.2 2176.48 1481.76 Q2178.7 1482.32 2181.18 1482.32 Q2185.18 1482.32 2187.52 1480.21 Q2189.86 1478.1 2189.86 1474.49 Q2189.86 1470.88 2187.52 1468.77 Q2185.18 1466.67 2181.18 1466.67 Q2179.3 1466.67 2177.43 1467.08 Q2175.58 1467.5 2173.63 1468.38 L2173.63 1451.02 Z" fill="#000000" fill-rule="evenodd" fill-opacity="1" /><path clip-path="url(#clip120)" d="M1160.7 1522.27 L1160.7 1532.4 L1172.76 1532.4 L1172.76 1536.95 L1160.7 1536.95 L1160.7 1556.3 Q1160.7 1560.66 1161.88 1561.9 Q1163.09 1563.14 1166.75 1563.14 L1172.76 1563.14 L1172.76 1568.04 L1166.75 1568.04 Q1159.97 1568.04 1157.39 1565.53 Q1154.81 1562.98 1154.81 1556.3 L1154.81 1536.95 L1150.51 1536.95 L1150.51 1532.4 L1154.81 1532.4 L1154.81 1522.27 L1160.7 1522.27 Z" fill="#000000" fill-rule="evenodd" fill-opacity="1" /><path clip-path="url(#clip120)" d="M1180.47 1532.4 L1186.32 1532.4 L1186.32 1568.04 L1180.47 1568.04 L1180.47 1532.4 M1180.47 1518.52 L1186.32 1518.52 L1186.32 1525.93 L1180.47 1525.93 L1180.47 1518.52 Z" fill="#000000" fill-rule="evenodd" fill-opacity="1" /><path clip-path="url(#clip120)" d="M1226.33 1539.24 Q1228.53 1535.29 1231.58 1533.41 Q1234.64 1531.54 1238.78 1531.54 Q1244.35 1531.54 1247.37 1535.45 Q1250.39 1539.33 1250.39 1546.53 L1250.39 1568.04 L1244.5 1568.04 L1244.5 1546.72 Q1244.5 1541.59 1242.69 1539.11 Q1240.88 1536.63 1237.15 1536.63 Q1232.6 1536.63 1229.96 1539.65 Q1227.32 1542.68 1227.32 1547.9 L1227.32 1568.04 L1221.43 1568.04 L1221.43 1546.72 Q1221.43 1541.56 1219.61 1539.11 Q1217.8 1536.63 1214.01 1536.63 Q1209.52 1536.63 1206.88 1539.68 Q1204.24 1542.71 1204.24 1547.9 L1204.24 1568.04 L1198.35 1568.04 L1198.35 1532.4 L1204.24 1532.4 L1204.24 1537.93 Q1206.25 1534.66 1209.05 1533.1 Q1211.85 1531.54 1215.7 1531.54 Q1219.58 1531.54 1222.29 1533.51 Q1225.03 1535.48 1226.33 1539.24 Z" fill="#000000" fill-rule="evenodd" fill-opacity="1" /><path clip-path="url(#clip120)" d="M1292.57 1548.76 L1292.57 1551.62 L1265.64 1551.62 Q1266.02 1557.67 1269.27 1560.85 Q1272.55 1564 1278.37 1564 Q1281.74 1564 1284.89 1563.17 Q1288.08 1562.35 1291.2 1560.69 L1291.2 1566.23 Q1288.05 1567.57 1284.74 1568.27 Q1281.43 1568.97 1278.02 1568.97 Q1269.49 1568.97 1264.49 1564 Q1259.53 1559.04 1259.53 1550.57 Q1259.53 1541.82 1264.24 1536.69 Q1268.98 1531.54 1277 1531.54 Q1284.19 1531.54 1288.36 1536.18 Q1292.57 1540.8 1292.57 1548.76 M1286.71 1547.04 Q1286.65 1542.23 1284 1539.37 Q1281.39 1536.5 1277.06 1536.5 Q1272.16 1536.5 1269.2 1539.27 Q1266.28 1542.04 1265.83 1547.07 L1286.71 1547.04 Z" fill="#000000" fill-rule="evenodd" fill-opacity="1" /><path clip-path="url(#clip120)" d="M1303.67 1559.96 L1310.39 1559.96 L1310.39 1565.43 L1305.17 1575.62 L1301.06 1575.62 L1303.67 1565.43 L1303.67 1559.96 Z" fill="#000000" fill-rule="evenodd" fill-opacity="1" /><path clip-path="url(#clip120)" d="M1373.25 1546.53 L1373.25 1568.04 L1367.39 1568.04 L1367.39 1546.72 Q1367.39 1541.66 1365.42 1539.14 Q1363.45 1536.63 1359.5 1536.63 Q1354.76 1536.63 1352.02 1539.65 Q1349.28 1542.68 1349.28 1547.9 L1349.28 1568.04 L1343.4 1568.04 L1343.4 1518.52 L1349.28 1518.52 L1349.28 1537.93 Q1351.38 1534.72 1354.22 1533.13 Q1357.08 1531.54 1360.81 1531.54 Q1366.95 1531.54 1370.1 1535.36 Q1373.25 1539.14 1373.25 1546.53 Z" fill="#000000" fill-rule="evenodd" fill-opacity="1" /><path clip-path="url(#clip120)" d="M1405.59 1537.87 Q1404.6 1537.3 1403.42 1537.04 Q1402.28 1536.76 1400.88 1536.76 Q1395.91 1536.76 1393.24 1540 Q1390.6 1543.22 1390.6 1549.27 L1390.6 1568.04 L1384.71 1568.04 L1384.71 1532.4 L1390.6 1532.4 L1390.6 1537.93 Q1392.44 1534.69 1395.4 1533.13 Q1398.36 1531.54 1402.6 1531.54 Q1403.2 1531.54 1403.93 1531.63 Q1404.67 1531.7 1405.56 1531.85 L1405.59 1537.87 Z" fill="#000000" fill-rule="evenodd" fill-opacity="1" /><path clip-path="url(#clip120)" d="M1434.46 1533.45 L1434.46 1538.98 Q1431.97 1537.71 1429.3 1537.07 Q1426.63 1536.44 1423.76 1536.44 Q1419.4 1536.44 1417.21 1537.77 Q1415.04 1539.11 1415.04 1541.79 Q1415.04 1543.82 1416.6 1545 Q1418.16 1546.15 1422.87 1547.2 L1424.88 1547.64 Q1431.11 1548.98 1433.72 1551.43 Q1436.37 1553.85 1436.37 1558.21 Q1436.37 1563.17 1432.42 1566.07 Q1428.51 1568.97 1421.63 1568.97 Q1418.77 1568.97 1415.65 1568.39 Q1412.56 1567.85 1409.12 1566.74 L1409.12 1560.69 Q1412.37 1562.38 1415.52 1563.24 Q1418.67 1564.07 1421.76 1564.07 Q1425.9 1564.07 1428.12 1562.66 Q1430.35 1561.23 1430.35 1558.65 Q1430.35 1556.27 1428.73 1554.99 Q1427.14 1553.72 1421.69 1552.54 L1419.66 1552.07 Q1414.21 1550.92 1411.8 1548.56 Q1409.38 1546.18 1409.38 1542.04 Q1409.38 1537.01 1412.94 1534.27 Q1416.51 1531.54 1423.06 1531.54 Q1426.31 1531.54 1429.17 1532.01 Q1432.04 1532.49 1434.46 1533.45 Z" fill="#000000" fill-rule="evenodd" fill-opacity="1" /><polyline clip-path="url(#clip122)" style="stroke:#000000; stroke-linecap:round; stroke-linejoin:round; stroke-width:2; stroke-opacity:0.1; fill:none" points="
  234.125,1386.4 2352.76,1386.4 
  "/>
<polyline clip-path="url(#clip122)" style="stroke:#000000; stroke-linecap:round; stroke-linejoin:round; stroke-width:2; stroke-opacity:0.1; fill:none" points="
  234.125,1085.65 2352.76,1085.65 
  "/>
<polyline clip-path="url(#clip122)" style="stroke:#000000; stroke-linecap:round; stroke-linejoin:round; stroke-width:2; stroke-opacity:0.1; fill:none" points="
  234.125,784.911 2352.76,784.911 
  "/>
<polyline clip-path="url(#clip122)" style="stroke:#000000; stroke-linecap:round; stroke-linejoin:round; stroke-width:2; stroke-opacity:0.1; fill:none" points="
  234.125,484.168 2352.76,484.168 
  "/>
<polyline clip-path="url(#clip122)" style="stroke:#000000; stroke-linecap:round; stroke-linejoin:round; stroke-width:2; stroke-opacity:0.1; fill:none" points="
  234.125,183.426 2352.76,183.426 
  "/>
<polyline clip-path="url(#clip120)" style="stroke:#000000; stroke-linecap:round; stroke-linejoin:round; stroke-width:4; stroke-opacity:1; fill:none" points="
  234.125,1423.18 234.125,123.472 
  "/>
<polyline clip-path="url(#clip120)" style="stroke:#000000; stroke-linecap:round; stroke-linejoin:round; stroke-width:4; stroke-opacity:1; fill:none" points="
  2352.76,1423.18 2352.76,123.472 
  "/>
<polyline clip-path="url(#clip120)" style="stroke:#000000; stroke-linecap:round; stroke-linejoin:round; stroke-width:4; stroke-opacity:1; fill:none" points="
  234.125,1386.4 253.023,1386.4 
  "/>
<polyline clip-path="url(#clip120)" style="stroke:#000000; stroke-linecap:round; stroke-linejoin:round; stroke-width:4; stroke-opacity:1; fill:none" points="
  234.125,1085.65 253.023,1085.65 
  "/>
<polyline clip-path="url(#clip120)" style="stroke:#000000; stroke-linecap:round; stroke-linejoin:round; stroke-width:4; stroke-opacity:1; fill:none" points="
  234.125,784.911 253.023,784.911 
  "/>
<polyline clip-path="url(#clip120)" style="stroke:#000000; stroke-linecap:round; stroke-linejoin:round; stroke-width:4; stroke-opacity:1; fill:none" points="
  234.125,484.168 253.023,484.168 
  "/>
<polyline clip-path="url(#clip120)" style="stroke:#000000; stroke-linecap:round; stroke-linejoin:round; stroke-width:4; stroke-opacity:1; fill:none" points="
  234.125,183.426 253.023,183.426 
  "/>
<path clip-path="url(#clip120)" d="M186.181 1372.19 Q182.57 1372.19 180.741 1375.76 Q178.936 1379.3 178.936 1386.43 Q178.936 1393.54 180.741 1397.1 Q182.57 1400.64 186.181 1400.64 Q189.815 1400.64 191.621 1397.1 Q193.45 1393.54 193.45 1386.43 Q193.45 1379.3 191.621 1375.76 Q189.815 1372.19 186.181 1372.19 M186.181 1368.49 Q191.991 1368.49 195.047 1373.1 Q198.125 1377.68 198.125 1386.43 Q198.125 1395.16 195.047 1399.76 Q191.991 1404.35 186.181 1404.35 Q180.371 1404.35 177.292 1399.76 Q174.237 1395.16 174.237 1386.43 Q174.237 1377.68 177.292 1373.1 Q180.371 1368.49 186.181 1368.49 Z" fill="#000000" fill-rule="evenodd" fill-opacity="1" /><path clip-path="url(#clip120)" d="M146.066 1068.37 L164.422 1068.37 L164.422 1072.31 L150.348 1072.31 L150.348 1080.78 Q151.366 1080.43 152.385 1080.27 Q153.403 1080.09 154.422 1080.09 Q160.209 1080.09 163.589 1083.26 Q166.968 1086.43 166.968 1091.85 Q166.968 1097.42 163.496 1100.53 Q160.024 1103.6 153.704 1103.6 Q151.528 1103.6 149.26 1103.23 Q147.015 1102.86 144.607 1102.12 L144.607 1097.42 Q146.691 1098.56 148.913 1099.11 Q151.135 1099.67 153.612 1099.67 Q157.616 1099.67 159.954 1097.56 Q162.292 1095.46 162.292 1091.85 Q162.292 1088.23 159.954 1086.13 Q157.616 1084.02 153.612 1084.02 Q151.737 1084.02 149.862 1084.44 Q148.01 1084.85 146.066 1085.73 L146.066 1068.37 Z" fill="#000000" fill-rule="evenodd" fill-opacity="1" /><path clip-path="url(#clip120)" d="M186.181 1071.45 Q182.57 1071.45 180.741 1075.02 Q178.936 1078.56 178.936 1085.69 Q178.936 1092.79 180.741 1096.36 Q182.57 1099.9 186.181 1099.9 Q189.815 1099.9 191.621 1096.36 Q193.45 1092.79 193.45 1085.69 Q193.45 1078.56 191.621 1075.02 Q189.815 1071.45 186.181 1071.45 M186.181 1067.75 Q191.991 1067.75 195.047 1072.35 Q198.125 1076.94 198.125 1085.69 Q198.125 1094.41 195.047 1099.02 Q191.991 1103.6 186.181 1103.6 Q180.371 1103.6 177.292 1099.02 Q174.237 1094.41 174.237 1085.69 Q174.237 1076.94 177.292 1072.35 Q180.371 1067.75 186.181 1067.75 Z" fill="#000000" fill-rule="evenodd" fill-opacity="1" /><path clip-path="url(#clip120)" d="M116.668 798.255 L124.306 798.255 L124.306 771.89 L115.996 773.556 L115.996 769.297 L124.26 767.631 L128.936 767.631 L128.936 798.255 L136.575 798.255 L136.575 802.191 L116.668 802.191 L116.668 798.255 Z" fill="#000000" fill-rule="evenodd" fill-opacity="1" /><path clip-path="url(#clip120)" d="M156.019 770.709 Q152.408 770.709 150.579 774.274 Q148.774 777.816 148.774 784.945 Q148.774 792.052 150.579 795.617 Q152.408 799.158 156.019 799.158 Q159.653 799.158 161.459 795.617 Q163.288 792.052 163.288 784.945 Q163.288 777.816 161.459 774.274 Q159.653 770.709 156.019 770.709 M156.019 767.006 Q161.829 767.006 164.885 771.612 Q167.964 776.195 167.964 784.945 Q167.964 793.672 164.885 798.279 Q161.829 802.862 156.019 802.862 Q150.209 802.862 147.13 798.279 Q144.075 793.672 144.075 784.945 Q144.075 776.195 147.13 771.612 Q150.209 767.006 156.019 767.006 Z" fill="#000000" fill-rule="evenodd" fill-opacity="1" /><path clip-path="url(#clip120)" d="M186.181 770.709 Q182.57 770.709 180.741 774.274 Q178.936 777.816 178.936 784.945 Q178.936 792.052 180.741 795.617 Q182.57 799.158 186.181 799.158 Q189.815 799.158 191.621 795.617 Q193.45 792.052 193.45 784.945 Q193.45 777.816 191.621 774.274 Q189.815 770.709 186.181 770.709 M186.181 767.006 Q191.991 767.006 195.047 771.612 Q198.125 776.195 198.125 784.945 Q198.125 793.672 195.047 798.279 Q191.991 802.862 186.181 802.862 Q180.371 802.862 177.292 798.279 Q174.237 793.672 174.237 784.945 Q174.237 776.195 177.292 771.612 Q180.371 767.006 186.181 767.006 Z" fill="#000000" fill-rule="evenodd" fill-opacity="1" /><path clip-path="url(#clip120)" d="M116.668 497.513 L124.306 497.513 L124.306 471.147 L115.996 472.814 L115.996 468.555 L124.26 466.888 L128.936 466.888 L128.936 497.513 L136.575 497.513 L136.575 501.448 L116.668 501.448 L116.668 497.513 Z" fill="#000000" fill-rule="evenodd" fill-opacity="1" /><path clip-path="url(#clip120)" d="M146.066 466.888 L164.422 466.888 L164.422 470.823 L150.348 470.823 L150.348 479.295 Q151.366 478.948 152.385 478.786 Q153.403 478.601 154.422 478.601 Q160.209 478.601 163.589 481.772 Q166.968 484.944 166.968 490.36 Q166.968 495.939 163.496 499.041 Q160.024 502.119 153.704 502.119 Q151.528 502.119 149.26 501.749 Q147.015 501.379 144.607 500.638 L144.607 495.939 Q146.691 497.073 148.913 497.629 Q151.135 498.184 153.612 498.184 Q157.616 498.184 159.954 496.078 Q162.292 493.971 162.292 490.36 Q162.292 486.749 159.954 484.643 Q157.616 482.536 153.612 482.536 Q151.737 482.536 149.862 482.953 Q148.01 483.369 146.066 484.249 L146.066 466.888 Z" fill="#000000" fill-rule="evenodd" fill-opacity="1" /><path clip-path="url(#clip120)" d="M186.181 469.967 Q182.57 469.967 180.741 473.532 Q178.936 477.073 178.936 484.203 Q178.936 491.309 180.741 494.874 Q182.57 498.416 186.181 498.416 Q189.815 498.416 191.621 494.874 Q193.45 491.309 193.45 484.203 Q193.45 477.073 191.621 473.532 Q189.815 469.967 186.181 469.967 M186.181 466.263 Q191.991 466.263 195.047 470.87 Q198.125 475.453 198.125 484.203 Q198.125 492.93 195.047 497.536 Q191.991 502.119 186.181 502.119 Q180.371 502.119 177.292 497.536 Q174.237 492.93 174.237 484.203 Q174.237 475.453 177.292 470.87 Q180.371 466.263 186.181 466.263 Z" fill="#000000" fill-rule="evenodd" fill-opacity="1" /><path clip-path="url(#clip120)" d="M119.885 196.77 L136.204 196.77 L136.204 200.706 L114.26 200.706 L114.26 196.77 Q116.922 194.016 121.505 189.386 Q126.112 184.733 127.292 183.391 Q129.538 180.868 130.417 179.132 Q131.32 177.372 131.32 175.682 Q131.32 172.928 129.376 171.192 Q127.455 169.456 124.353 169.456 Q122.154 169.456 119.7 170.22 Q117.269 170.983 114.492 172.534 L114.492 167.812 Q117.316 166.678 119.769 166.099 Q122.223 165.521 124.26 165.521 Q129.63 165.521 132.825 168.206 Q136.019 170.891 136.019 175.382 Q136.019 177.511 135.209 179.432 Q134.422 181.331 132.316 183.923 Q131.737 184.594 128.635 187.812 Q125.533 191.006 119.885 196.77 Z" fill="#000000" fill-rule="evenodd" fill-opacity="1" /><path clip-path="url(#clip120)" d="M156.019 169.224 Q152.408 169.224 150.579 172.789 Q148.774 176.331 148.774 183.46 Q148.774 190.567 150.579 194.131 Q152.408 197.673 156.019 197.673 Q159.653 197.673 161.459 194.131 Q163.288 190.567 163.288 183.46 Q163.288 176.331 161.459 172.789 Q159.653 169.224 156.019 169.224 M156.019 165.521 Q161.829 165.521 164.885 170.127 Q167.964 174.71 167.964 183.46 Q167.964 192.187 164.885 196.793 Q161.829 201.377 156.019 201.377 Q150.209 201.377 147.13 196.793 Q144.075 192.187 144.075 183.46 Q144.075 174.71 147.13 170.127 Q150.209 165.521 156.019 165.521 Z" fill="#000000" fill-rule="evenodd" fill-opacity="1" /><path clip-path="url(#clip120)" d="M186.181 169.224 Q182.57 169.224 180.741 172.789 Q178.936 176.331 178.936 183.46 Q178.936 190.567 180.741 194.131 Q182.57 197.673 186.181 197.673 Q189.815 197.673 191.621 194.131 Q193.45 190.567 193.45 183.46 Q193.45 176.331 191.621 172.789 Q189.815 169.224 186.181 169.224 M186.181 165.521 Q191.991 165.521 195.047 170.127 Q198.125 174.71 198.125 183.46 Q198.125 192.187 195.047 196.793 Q191.991 201.377 186.181 201.377 Q180.371 201.377 177.292 196.793 Q174.237 192.187 174.237 183.46 Q174.237 174.71 177.292 170.127 Q180.371 165.521 186.181 165.521 Z" fill="#000000" fill-rule="evenodd" fill-opacity="1" /><path clip-path="url(#clip120)" d="M33.7671 952.202 L14.479 952.202 L14.479 946.346 L64.0042 946.346 L64.0042 952.202 L58.657 952.202 Q61.8398 954.048 63.3994 956.881 Q64.9272 959.682 64.9272 963.629 Q64.9272 970.09 59.771 974.164 Q54.6147 978.206 46.212 978.206 Q37.8093 978.206 32.6531 974.164 Q27.4968 970.09 27.4968 963.629 Q27.4968 959.682 29.0564 956.881 Q30.5842 954.048 33.7671 952.202 M46.212 972.159 Q52.6732 972.159 56.3653 969.517 Q60.0256 966.843 60.0256 962.196 Q60.0256 957.55 56.3653 954.876 Q52.6732 952.202 46.212 952.202 Q39.7508 952.202 36.0905 954.876 Q32.3984 957.55 32.3984 962.196 Q32.3984 966.843 36.0905 969.517 Q39.7508 972.159 46.212 972.159 Z" fill="#000000" fill-rule="evenodd" fill-opacity="1" /><path clip-path="url(#clip120)" d="M28.3562 934.283 L28.3562 928.426 L64.0042 928.426 L64.0042 934.283 L28.3562 934.283 M14.479 934.283 L14.479 928.426 L21.895 928.426 L21.895 934.283 L14.479 934.283 Z" fill="#000000" fill-rule="evenodd" fill-opacity="1" /><path clip-path="url(#clip120)" d="M29.4065 893.447 L34.9447 893.447 Q33.6716 895.929 33.035 898.603 Q32.3984 901.277 32.3984 904.141 Q32.3984 908.502 33.7352 910.698 Q35.072 912.862 37.7456 912.862 Q39.7826 912.862 40.9603 911.303 Q42.1061 909.743 43.1565 905.032 L43.6021 903.027 Q44.9389 896.789 47.3897 894.179 Q49.8086 891.537 54.1691 891.537 Q59.1344 891.537 62.0308 895.484 Q64.9272 899.399 64.9272 906.274 Q64.9272 909.138 64.3543 912.258 Q63.8132 915.345 62.6992 918.782 L56.6518 918.782 Q58.3387 915.536 59.198 912.385 Q60.0256 909.234 60.0256 906.146 Q60.0256 902.009 58.6251 899.781 Q57.1929 897.553 54.6147 897.553 Q52.2276 897.553 50.9545 899.176 Q49.6813 900.767 48.5037 906.21 L48.0262 908.247 Q46.8804 913.69 44.5251 916.109 Q42.138 918.528 38.0002 918.528 Q32.9713 918.528 30.2341 914.963 Q27.4968 911.398 27.4968 904.841 Q27.4968 901.595 27.9743 898.73 Q28.4517 895.866 29.4065 893.447 Z" fill="#000000" fill-rule="evenodd" fill-opacity="1" /><path clip-path="url(#clip120)" d="M18.2347 876.419 L28.3562 876.419 L28.3562 864.356 L32.9077 864.356 L32.9077 876.419 L52.2594 876.419 Q56.6199 876.419 57.8613 875.241 Q59.1026 874.031 59.1026 870.371 L59.1026 864.356 L64.0042 864.356 L64.0042 870.371 Q64.0042 877.151 61.4897 879.729 Q58.9434 882.307 52.2594 882.307 L32.9077 882.307 L32.9077 886.604 L28.3562 886.604 L28.3562 882.307 L18.2347 882.307 L18.2347 876.419 Z" fill="#000000" fill-rule="evenodd" fill-opacity="1" /><path clip-path="url(#clip120)" d="M46.0847 840.452 Q46.0847 847.55 47.7079 850.287 Q49.3312 853.025 53.2461 853.025 Q56.3653 853.025 58.2114 850.988 Q60.0256 848.919 60.0256 845.386 Q60.0256 840.516 56.5881 837.588 Q53.1188 834.628 47.3897 834.628 L46.0847 834.628 L46.0847 840.452 M43.6657 828.771 L64.0042 828.771 L64.0042 834.628 L58.5933 834.628 Q61.8398 836.633 63.3994 839.625 Q64.9272 842.617 64.9272 846.945 Q64.9272 852.42 61.8716 855.666 Q58.7843 858.881 53.6281 858.881 Q47.6125 858.881 44.5569 854.871 Q41.5014 850.828 41.5014 842.84 L41.5014 834.628 L40.9285 834.628 Q36.8862 834.628 34.6901 837.301 Q32.4621 839.943 32.4621 844.749 Q32.4621 847.805 33.1941 850.701 Q33.9262 853.598 35.3903 856.271 L29.9795 856.271 Q28.7381 853.056 28.1334 850.033 Q27.4968 847.009 27.4968 844.144 Q27.4968 836.41 31.5072 832.591 Q35.5176 828.771 43.6657 828.771 Z" fill="#000000" fill-rule="evenodd" fill-opacity="1" /><path clip-path="url(#clip120)" d="M42.4881 787.076 L64.0042 787.076 L64.0042 792.932 L42.679 792.932 Q37.6183 792.932 35.1038 794.906 Q32.5894 796.879 32.5894 800.826 Q32.5894 805.568 35.6131 808.306 Q38.6368 811.043 43.8567 811.043 L64.0042 811.043 L64.0042 816.931 L28.3562 816.931 L28.3562 811.043 L33.8944 811.043 Q30.6797 808.942 29.0883 806.109 Q27.4968 803.245 27.4968 799.521 Q27.4968 793.378 31.3163 790.227 Q35.1038 787.076 42.4881 787.076 Z" fill="#000000" fill-rule="evenodd" fill-opacity="1" /><path clip-path="url(#clip120)" d="M29.7248 749.741 L35.1993 749.741 Q33.8307 752.224 33.1623 754.738 Q32.4621 757.221 32.4621 759.767 Q32.4621 765.464 36.0905 768.615 Q39.6872 771.766 46.212 771.766 Q52.7369 771.766 56.3653 768.615 Q59.9619 765.464 59.9619 759.767 Q59.9619 757.221 59.2935 754.738 Q58.5933 752.224 57.2247 749.741 L62.6355 749.741 Q63.7814 752.192 64.3543 754.834 Q64.9272 757.444 64.9272 760.404 Q64.9272 768.456 59.8664 773.199 Q54.8057 777.941 46.212 777.941 Q37.491 777.941 32.4939 773.167 Q27.4968 768.361 27.4968 760.022 Q27.4968 757.316 28.0697 754.738 Q28.6108 752.16 29.7248 749.741 Z" fill="#000000" fill-rule="evenodd" fill-opacity="1" /><path clip-path="url(#clip120)" d="M44.7161 709.064 L47.5806 709.064 L47.5806 735.991 Q53.6281 735.609 56.8109 732.363 Q59.9619 729.084 59.9619 723.26 Q59.9619 719.886 59.1344 716.735 Q58.3069 713.552 56.6518 710.433 L62.1899 710.433 Q63.5267 713.584 64.227 716.894 Q64.9272 720.204 64.9272 723.61 Q64.9272 732.14 59.9619 737.137 Q54.9967 742.102 46.5303 742.102 Q37.7774 742.102 32.6531 737.392 Q27.4968 732.649 27.4968 724.628 Q27.4968 717.435 32.1438 713.266 Q36.7589 709.064 44.7161 709.064 M42.9973 714.921 Q38.1912 714.984 35.3266 717.626 Q32.4621 720.236 32.4621 724.565 Q32.4621 729.466 35.2312 732.426 Q38.0002 735.355 43.0292 735.8 L42.9973 714.921 Z" fill="#000000" fill-rule="evenodd" fill-opacity="1" /><path clip-path="url(#clip120)" d="M55.9197 697.956 L55.9197 691.24 L61.3942 691.24 L71.5793 696.46 L71.5793 700.566 L61.3942 697.956 L55.9197 697.956 Z" fill="#000000" fill-rule="evenodd" fill-opacity="1" /><path clip-path="url(#clip120)" d="M14.479 658.234 L14.479 652.346 L43.7294 652.346 L28.3562 634.872 L28.3562 627.392 L45.0344 646.298 L64.0042 626.596 L64.0042 634.235 L46.5939 652.346 L64.0042 652.346 L64.0042 658.234 L14.479 658.234 Z" fill="#000000" fill-rule="evenodd" fill-opacity="1" /><path clip-path="url(#clip120)" d="M35.1993 592.508 Q31.2526 590.312 29.3747 587.256 Q27.4968 584.201 27.4968 580.063 Q27.4968 574.493 31.4117 571.469 Q35.2948 568.446 42.4881 568.446 L64.0042 568.446 L64.0042 574.334 L42.679 574.334 Q37.5546 574.334 35.072 576.148 Q32.5894 577.962 32.5894 581.686 Q32.5894 586.238 35.6131 588.88 Q38.6368 591.521 43.8567 591.521 L64.0042 591.521 L64.0042 597.41 L42.679 597.41 Q37.5228 597.41 35.072 599.224 Q32.5894 601.038 32.5894 604.826 Q32.5894 609.314 35.6449 611.955 Q38.6686 614.597 43.8567 614.597 L64.0042 614.597 L64.0042 620.485 L28.3562 620.485 L28.3562 614.597 L33.8944 614.597 Q30.616 612.592 29.0564 609.791 Q27.4968 606.99 27.4968 603.139 Q27.4968 599.256 29.4702 596.55 Q31.4436 593.813 35.1993 592.508 Z" fill="#000000" fill-rule="evenodd" fill-opacity="1" /><path clip-path="url(#clip120)" d="M852.662 12.096 L903.825 12.096 L903.825 18.9825 L882.355 18.9825 L882.355 72.576 L874.132 72.576 L874.132 18.9825 L852.662 18.9825 L852.662 12.096 Z" fill="#000000" fill-rule="evenodd" fill-opacity="1" /><path clip-path="url(#clip120)" d="M908.848 27.2059 L916.301 27.2059 L916.301 72.576 L908.848 72.576 L908.848 27.2059 M908.848 9.54393 L916.301 9.54393 L916.301 18.9825 L908.848 18.9825 L908.848 9.54393 Z" fill="#000000" fill-rule="evenodd" fill-opacity="1" /><path clip-path="url(#clip120)" d="M967.221 35.9153 Q970.016 30.8922 973.905 28.5022 Q977.794 26.1121 983.06 26.1121 Q990.149 26.1121 993.998 31.0947 Q997.846 36.0368 997.846 45.1919 L997.846 72.576 L990.352 72.576 L990.352 45.4349 Q990.352 38.913 988.043 35.7533 Q985.734 32.5936 980.994 32.5936 Q975.202 32.5936 971.839 36.4419 Q968.477 40.2903 968.477 46.9338 L968.477 72.576 L960.983 72.576 L960.983 45.4349 Q960.983 38.8725 958.674 35.7533 Q956.365 32.5936 951.544 32.5936 Q945.833 32.5936 942.47 36.4824 Q939.108 40.3308 939.108 46.9338 L939.108 72.576 L931.614 72.576 L931.614 27.2059 L939.108 27.2059 L939.108 34.2544 Q941.66 30.082 945.225 28.0971 Q948.79 26.1121 953.691 26.1121 Q958.633 26.1121 962.077 28.6237 Q965.56 31.1352 967.221 35.9153 Z" fill="#000000" fill-rule="evenodd" fill-opacity="1" /><path clip-path="url(#clip120)" d="M1051.52 48.0275 L1051.52 51.6733 L1017.25 51.6733 Q1017.74 59.3701 1021.87 63.421 Q1026.04 67.4314 1033.45 67.4314 Q1037.75 67.4314 1041.76 66.3781 Q1045.81 65.3249 1049.78 63.2184 L1049.78 70.267 Q1045.77 71.9684 1041.56 72.8596 Q1037.34 73.7508 1033.01 73.7508 Q1022.15 73.7508 1015.79 67.4314 Q1009.47 61.1119 1009.47 50.3365 Q1009.47 39.1965 1015.47 32.6746 Q1021.5 26.1121 1031.71 26.1121 Q1040.87 26.1121 1046.17 32.0264 Q1051.52 37.9003 1051.52 48.0275 M1044.07 45.84 Q1043.99 39.7232 1040.62 36.0774 Q1037.3 32.4315 1031.79 32.4315 Q1025.55 32.4315 1021.79 35.9558 Q1018.06 39.4801 1017.49 45.8805 L1044.07 45.84 Z" fill="#000000" fill-rule="evenodd" fill-opacity="1" /><path clip-path="url(#clip120)" d="M1126.71 14.0809 L1126.71 22.0612 Q1122.05 19.8332 1117.91 18.7395 Q1113.78 17.6457 1109.93 17.6457 Q1103.25 17.6457 1099.6 20.2383 Q1096 22.8309 1096 27.611 Q1096 31.6214 1098.39 33.6873 Q1100.82 35.7128 1107.54 36.9686 L1112.49 37.9813 Q1121.64 39.7232 1125.98 44.1387 Q1130.35 48.5136 1130.35 55.8863 Q1130.35 64.6767 1124.44 69.2137 Q1118.56 73.7508 1107.18 73.7508 Q1102.89 73.7508 1098.03 72.7785 Q1093.2 71.8063 1088.02 69.9024 L1088.02 61.4765 Q1093 64.2716 1097.78 65.6895 Q1102.56 67.1073 1107.18 67.1073 Q1114.19 67.1073 1118 64.3527 Q1121.8 61.598 1121.8 56.4939 Q1121.8 52.0379 1119.05 49.5264 Q1116.34 47.0148 1110.1 45.759 L1105.11 44.7868 Q1095.96 42.9639 1091.87 39.075 Q1087.78 35.1862 1087.78 28.2591 Q1087.78 20.2383 1093.41 15.6203 Q1099.08 11.0023 1109 11.0023 Q1113.26 11.0023 1117.67 11.7719 Q1122.09 12.5416 1126.71 14.0809 Z" fill="#000000" fill-rule="evenodd" fill-opacity="1" /><path clip-path="url(#clip120)" d="M1150.16 14.324 L1150.16 27.2059 L1165.51 27.2059 L1165.51 32.9987 L1150.16 32.9987 L1150.16 57.6282 Q1150.16 63.1779 1151.66 64.7578 Q1153.2 66.3376 1157.86 66.3376 L1165.51 66.3376 L1165.51 72.576 L1157.86 72.576 Q1149.23 72.576 1145.95 69.3758 Q1142.67 66.1351 1142.67 57.6282 L1142.67 32.9987 L1137.2 32.9987 L1137.2 27.2059 L1142.67 27.2059 L1142.67 14.324 L1150.16 14.324 Z" fill="#000000" fill-rule="evenodd" fill-opacity="1" /><path clip-path="url(#clip120)" d="M1214.12 48.0275 L1214.12 51.6733 L1179.85 51.6733 Q1180.34 59.3701 1184.47 63.421 Q1188.64 67.4314 1196.06 67.4314 Q1200.35 67.4314 1204.36 66.3781 Q1208.41 65.3249 1212.38 63.2184 L1212.38 70.267 Q1208.37 71.9684 1204.16 72.8596 Q1199.95 73.7508 1195.61 73.7508 Q1184.75 73.7508 1178.39 67.4314 Q1172.08 61.1119 1172.08 50.3365 Q1172.08 39.1965 1178.07 32.6746 Q1184.11 26.1121 1194.32 26.1121 Q1203.47 26.1121 1208.78 32.0264 Q1214.12 37.9003 1214.12 48.0275 M1206.67 45.84 Q1206.59 39.7232 1203.23 36.0774 Q1199.91 32.4315 1194.4 32.4315 Q1188.16 32.4315 1184.39 35.9558 Q1180.66 39.4801 1180.1 45.8805 L1206.67 45.84 Z" fill="#000000" fill-rule="evenodd" fill-opacity="1" /><path clip-path="url(#clip120)" d="M1233.57 65.7705 L1233.57 89.8329 L1226.07 89.8329 L1226.07 27.2059 L1233.57 27.2059 L1233.57 34.0924 Q1235.92 30.0415 1239.48 28.0971 Q1243.09 26.1121 1248.07 26.1121 Q1256.33 26.1121 1261.48 32.6746 Q1266.66 39.2371 1266.66 49.9314 Q1266.66 60.6258 1261.48 67.1883 Q1256.33 73.7508 1248.07 73.7508 Q1243.09 73.7508 1239.48 71.8063 Q1235.92 69.8214 1233.57 65.7705 M1258.93 49.9314 Q1258.93 41.7081 1255.52 37.0496 Q1252.16 32.3505 1246.25 32.3505 Q1240.33 32.3505 1236.93 37.0496 Q1233.57 41.7081 1233.57 49.9314 Q1233.57 58.1548 1236.93 62.8538 Q1240.33 67.5124 1246.25 67.5124 Q1252.16 67.5124 1255.52 62.8538 Q1258.93 58.1548 1258.93 49.9314 Z" fill="#000000" fill-rule="evenodd" fill-opacity="1" /><path clip-path="url(#clip120)" d="M1335.25 34.0924 L1335.25 9.54393 L1342.7 9.54393 L1342.7 72.576 L1335.25 72.576 L1335.25 65.7705 Q1332.9 69.8214 1329.29 71.8063 Q1325.73 73.7508 1320.7 73.7508 Q1312.48 73.7508 1307.29 67.1883 Q1302.15 60.6258 1302.15 49.9314 Q1302.15 39.2371 1307.29 32.6746 Q1312.48 26.1121 1320.7 26.1121 Q1325.73 26.1121 1329.29 28.0971 Q1332.9 30.0415 1335.25 34.0924 M1309.85 49.9314 Q1309.85 58.1548 1313.21 62.8538 Q1316.61 67.5124 1322.53 67.5124 Q1328.44 67.5124 1331.84 62.8538 Q1335.25 58.1548 1335.25 49.9314 Q1335.25 41.7081 1331.84 37.0496 Q1328.44 32.3505 1322.53 32.3505 Q1316.61 32.3505 1313.21 37.0496 Q1309.85 41.7081 1309.85 49.9314 Z" fill="#000000" fill-rule="evenodd" fill-opacity="1" /><path clip-path="url(#clip120)" d="M1365.43 14.324 L1365.43 27.2059 L1380.78 27.2059 L1380.78 32.9987 L1365.43 32.9987 L1365.43 57.6282 Q1365.43 63.1779 1366.92 64.7578 Q1368.46 66.3376 1373.12 66.3376 L1380.78 66.3376 L1380.78 72.576 L1373.12 72.576 Q1364.49 72.576 1361.21 69.3758 Q1357.93 66.1351 1357.93 57.6282 L1357.93 32.9987 L1352.46 32.9987 L1352.46 27.2059 L1357.93 27.2059 L1357.93 14.324 L1365.43 14.324 Z" fill="#000000" fill-rule="evenodd" fill-opacity="1" /><path clip-path="url(#clip120)" d="M1417.92 34.9026 L1469.86 34.9026 L1469.86 41.7081 L1417.92 41.7081 L1417.92 34.9026 M1417.92 51.4303 L1469.86 51.4303 L1469.86 58.3168 L1417.92 58.3168 L1417.92 51.4303 Z" fill="#000000" fill-rule="evenodd" fill-opacity="1" /><path clip-path="url(#clip120)" d="M1531.39 17.4837 Q1525.07 17.4837 1521.87 23.7221 Q1518.71 29.92 1518.71 42.3968 Q1518.71 54.833 1521.87 61.0714 Q1525.07 67.2693 1531.39 67.2693 Q1537.75 67.2693 1540.91 61.0714 Q1544.11 54.833 1544.11 42.3968 Q1544.11 29.92 1540.91 23.7221 Q1537.75 17.4837 1531.39 17.4837 M1531.39 11.0023 Q1541.56 11.0023 1546.91 19.0636 Q1552.29 27.0843 1552.29 42.3968 Q1552.29 57.6687 1546.91 65.73 Q1541.56 73.7508 1531.39 73.7508 Q1521.22 73.7508 1515.84 65.73 Q1510.49 57.6687 1510.49 42.3968 Q1510.49 27.0843 1515.84 19.0636 Q1521.22 11.0023 1531.39 11.0023 Z" fill="#000000" fill-rule="evenodd" fill-opacity="1" /><path clip-path="url(#clip120)" d="M1566.67 62.2867 L1575.22 62.2867 L1575.22 72.576 L1566.67 72.576 L1566.67 62.2867 Z" fill="#000000" fill-rule="evenodd" fill-opacity="1" /><path clip-path="url(#clip120)" d="M1610.55 17.4837 Q1604.23 17.4837 1601.03 23.7221 Q1597.87 29.92 1597.87 42.3968 Q1597.87 54.833 1601.03 61.0714 Q1604.23 67.2693 1610.55 67.2693 Q1616.91 67.2693 1620.07 61.0714 Q1623.27 54.833 1623.27 42.3968 Q1623.27 29.92 1620.07 23.7221 Q1616.91 17.4837 1610.55 17.4837 M1610.55 11.0023 Q1620.71 11.0023 1626.06 19.0636 Q1631.45 27.0843 1631.45 42.3968 Q1631.45 57.6687 1626.06 65.73 Q1620.71 73.7508 1610.55 73.7508 Q1600.38 73.7508 1594.99 65.73 Q1589.64 57.6687 1589.64 42.3968 Q1589.64 27.0843 1594.99 19.0636 Q1600.38 11.0023 1610.55 11.0023 Z" fill="#000000" fill-rule="evenodd" fill-opacity="1" /><path clip-path="url(#clip120)" d="M1663.33 43.8551 Q1657.5 43.8551 1654.13 46.9743 Q1650.81 50.0935 1650.81 55.5622 Q1650.81 61.0309 1654.13 64.1501 Q1657.5 67.2693 1663.33 67.2693 Q1669.16 67.2693 1672.52 64.1501 Q1675.89 60.9904 1675.89 55.5622 Q1675.89 50.0935 1672.52 46.9743 Q1669.2 43.8551 1663.33 43.8551 M1655.15 40.3713 Q1649.88 39.075 1646.92 35.4697 Q1644.01 31.8644 1644.01 26.6793 Q1644.01 19.4281 1649.15 15.2152 Q1654.34 11.0023 1663.33 11.0023 Q1672.36 11.0023 1677.51 15.2152 Q1682.65 19.4281 1682.65 26.6793 Q1682.65 31.8644 1679.69 35.4697 Q1676.78 39.075 1671.55 40.3713 Q1677.47 41.7486 1680.75 45.759 Q1684.07 49.7694 1684.07 55.5622 Q1684.07 64.3527 1678.68 69.0517 Q1673.33 73.7508 1663.33 73.7508 Q1653.32 73.7508 1647.94 69.0517 Q1642.59 64.3527 1642.59 55.5622 Q1642.59 49.7694 1645.91 45.759 Q1649.23 41.7486 1655.15 40.3713 M1652.15 27.4489 Q1652.15 32.148 1655.06 34.7811 Q1658.02 37.4142 1663.33 37.4142 Q1668.59 37.4142 1671.55 34.7811 Q1674.55 32.148 1674.55 27.4489 Q1674.55 22.7499 1671.55 20.1168 Q1668.59 17.4837 1663.33 17.4837 Q1658.02 17.4837 1655.06 20.1168 Q1652.15 22.7499 1652.15 27.4489 Z" fill="#000000" fill-rule="evenodd" fill-opacity="1" /><path clip-path="url(#clip120)" d="M1705.66 65.6895 L1734.22 65.6895 L1734.22 72.576 L1695.82 72.576 L1695.82 65.6895 Q1700.48 60.8689 1708.5 52.7671 Q1716.56 44.6248 1718.62 42.2752 Q1722.55 37.8598 1724.09 34.8216 Q1725.67 31.7429 1725.67 28.7857 Q1725.67 23.9651 1722.27 20.927 Q1718.91 17.8888 1713.48 17.8888 Q1709.63 17.8888 1705.34 19.2256 Q1701.08 20.5624 1696.22 23.2765 L1696.22 15.0127 Q1701.16 13.0277 1705.46 12.015 Q1709.75 11.0023 1713.32 11.0023 Q1722.71 11.0023 1728.31 15.7013 Q1733.9 20.4004 1733.9 28.2591 Q1733.9 31.9859 1732.48 35.3482 Q1731.1 38.6699 1727.41 43.2069 Q1726.4 44.3817 1720.97 50.0125 Q1715.54 55.6027 1705.66 65.6895 Z" fill="#000000" fill-rule="evenodd" fill-opacity="1" /><circle clip-path="url(#clip122)" cx="294.087" cy="1386.4" r="14.4" fill="#009af9" fill-rule="evenodd" fill-opacity="1" stroke="#000000" stroke-opacity="1" stroke-width="3.2"/>
<circle clip-path="url(#clip122)" cx="304.336" cy="1330.66" r="14.4" fill="#009af9" fill-rule="evenodd" fill-opacity="1" stroke="#000000" stroke-opacity="1" stroke-width="3.2"/>
<circle clip-path="url(#clip122)" cx="314.586" cy="1274.93" r="14.4" fill="#009af9" fill-rule="evenodd" fill-opacity="1" stroke="#000000" stroke-opacity="1" stroke-width="3.2"/>
<circle clip-path="url(#clip122)" cx="324.836" cy="1219.19" r="14.4" fill="#009af9" fill-rule="evenodd" fill-opacity="1" stroke="#000000" stroke-opacity="1" stroke-width="3.2"/>
<circle clip-path="url(#clip122)" cx="335.086" cy="1163.46" r="14.4" fill="#009af9" fill-rule="evenodd" fill-opacity="1" stroke="#000000" stroke-opacity="1" stroke-width="3.2"/>
<circle clip-path="url(#clip122)" cx="345.336" cy="1107.73" r="14.4" fill="#009af9" fill-rule="evenodd" fill-opacity="1" stroke="#000000" stroke-opacity="1" stroke-width="3.2"/>
<circle clip-path="url(#clip122)" cx="355.585" cy="1051.99" r="14.4" fill="#009af9" fill-rule="evenodd" fill-opacity="1" stroke="#000000" stroke-opacity="1" stroke-width="3.2"/>
<circle clip-path="url(#clip122)" cx="365.835" cy="996.26" r="14.4" fill="#009af9" fill-rule="evenodd" fill-opacity="1" stroke="#000000" stroke-opacity="1" stroke-width="3.2"/>
<circle clip-path="url(#clip122)" cx="376.085" cy="940.527" r="14.4" fill="#009af9" fill-rule="evenodd" fill-opacity="1" stroke="#000000" stroke-opacity="1" stroke-width="3.2"/>
<circle clip-path="url(#clip122)" cx="386.335" cy="884.793" r="14.4" fill="#009af9" fill-rule="evenodd" fill-opacity="1" stroke="#000000" stroke-opacity="1" stroke-width="3.2"/>
<circle clip-path="url(#clip122)" cx="396.585" cy="829.06" r="14.4" fill="#009af9" fill-rule="evenodd" fill-opacity="1" stroke="#000000" stroke-opacity="1" stroke-width="3.2"/>
<circle clip-path="url(#clip122)" cx="406.834" cy="773.326" r="14.4" fill="#009af9" fill-rule="evenodd" fill-opacity="1" stroke="#000000" stroke-opacity="1" stroke-width="3.2"/>
<circle clip-path="url(#clip122)" cx="417.084" cy="717.592" r="14.4" fill="#009af9" fill-rule="evenodd" fill-opacity="1" stroke="#000000" stroke-opacity="1" stroke-width="3.2"/>
<circle clip-path="url(#clip122)" cx="427.334" cy="661.859" r="14.4" fill="#009af9" fill-rule="evenodd" fill-opacity="1" stroke="#000000" stroke-opacity="1" stroke-width="3.2"/>
<circle clip-path="url(#clip122)" cx="437.584" cy="606.125" r="14.4" fill="#009af9" fill-rule="evenodd" fill-opacity="1" stroke="#000000" stroke-opacity="1" stroke-width="3.2"/>
<circle clip-path="url(#clip122)" cx="447.833" cy="550.392" r="14.4" fill="#009af9" fill-rule="evenodd" fill-opacity="1" stroke="#000000" stroke-opacity="1" stroke-width="3.2"/>
<circle clip-path="url(#clip122)" cx="458.083" cy="494.658" r="14.4" fill="#009af9" fill-rule="evenodd" fill-opacity="1" stroke="#000000" stroke-opacity="1" stroke-width="3.2"/>
<circle clip-path="url(#clip122)" cx="468.333" cy="438.924" r="14.4" fill="#009af9" fill-rule="evenodd" fill-opacity="1" stroke="#000000" stroke-opacity="1" stroke-width="3.2"/>
<circle clip-path="url(#clip122)" cx="478.583" cy="383.191" r="14.4" fill="#009af9" fill-rule="evenodd" fill-opacity="1" stroke="#000000" stroke-opacity="1" stroke-width="3.2"/>
<circle clip-path="url(#clip122)" cx="488.833" cy="327.457" r="14.4" fill="#009af9" fill-rule="evenodd" fill-opacity="1" stroke="#000000" stroke-opacity="1" stroke-width="3.2"/>
<circle clip-path="url(#clip122)" cx="499.082" cy="271.724" r="14.4" fill="#009af9" fill-rule="evenodd" fill-opacity="1" stroke="#000000" stroke-opacity="1" stroke-width="3.2"/>
<circle clip-path="url(#clip122)" cx="509.332" cy="215.99" r="14.4" fill="#009af9" fill-rule="evenodd" fill-opacity="1" stroke="#000000" stroke-opacity="1" stroke-width="3.2"/>
<circle clip-path="url(#clip122)" cx="519.582" cy="160.256" r="14.4" fill="#009af9" fill-rule="evenodd" fill-opacity="1" stroke="#000000" stroke-opacity="1" stroke-width="3.2"/>
<circle clip-path="url(#clip122)" cx="529.832" cy="215.99" r="14.4" fill="#009af9" fill-rule="evenodd" fill-opacity="1" stroke="#000000" stroke-opacity="1" stroke-width="3.2"/>
<circle clip-path="url(#clip122)" cx="540.082" cy="271.724" r="14.4" fill="#009af9" fill-rule="evenodd" fill-opacity="1" stroke="#000000" stroke-opacity="1" stroke-width="3.2"/>
<circle clip-path="url(#clip122)" cx="550.331" cy="327.457" r="14.4" fill="#009af9" fill-rule="evenodd" fill-opacity="1" stroke="#000000" stroke-opacity="1" stroke-width="3.2"/>
<circle clip-path="url(#clip122)" cx="560.581" cy="383.191" r="14.4" fill="#009af9" fill-rule="evenodd" fill-opacity="1" stroke="#000000" stroke-opacity="1" stroke-width="3.2"/>
<circle clip-path="url(#clip122)" cx="570.831" cy="438.924" r="14.4" fill="#009af9" fill-rule="evenodd" fill-opacity="1" stroke="#000000" stroke-opacity="1" stroke-width="3.2"/>
<circle clip-path="url(#clip122)" cx="581.081" cy="494.658" r="14.4" fill="#009af9" fill-rule="evenodd" fill-opacity="1" stroke="#000000" stroke-opacity="1" stroke-width="3.2"/>
<circle clip-path="url(#clip122)" cx="591.33" cy="550.392" r="14.4" fill="#009af9" fill-rule="evenodd" fill-opacity="1" stroke="#000000" stroke-opacity="1" stroke-width="3.2"/>
<circle clip-path="url(#clip122)" cx="601.58" cy="606.125" r="14.4" fill="#009af9" fill-rule="evenodd" fill-opacity="1" stroke="#000000" stroke-opacity="1" stroke-width="3.2"/>
<circle clip-path="url(#clip122)" cx="611.83" cy="661.859" r="14.4" fill="#009af9" fill-rule="evenodd" fill-opacity="1" stroke="#000000" stroke-opacity="1" stroke-width="3.2"/>
<circle clip-path="url(#clip122)" cx="622.08" cy="717.592" r="14.4" fill="#009af9" fill-rule="evenodd" fill-opacity="1" stroke="#000000" stroke-opacity="1" stroke-width="3.2"/>
<circle clip-path="url(#clip122)" cx="632.33" cy="773.326" r="14.4" fill="#009af9" fill-rule="evenodd" fill-opacity="1" stroke="#000000" stroke-opacity="1" stroke-width="3.2"/>
<circle clip-path="url(#clip122)" cx="642.579" cy="829.06" r="14.4" fill="#009af9" fill-rule="evenodd" fill-opacity="1" stroke="#000000" stroke-opacity="1" stroke-width="3.2"/>
<circle clip-path="url(#clip122)" cx="652.829" cy="884.793" r="14.4" fill="#009af9" fill-rule="evenodd" fill-opacity="1" stroke="#000000" stroke-opacity="1" stroke-width="3.2"/>
<circle clip-path="url(#clip122)" cx="663.079" cy="940.527" r="14.4" fill="#009af9" fill-rule="evenodd" fill-opacity="1" stroke="#000000" stroke-opacity="1" stroke-width="3.2"/>
<circle clip-path="url(#clip122)" cx="673.329" cy="996.26" r="14.4" fill="#009af9" fill-rule="evenodd" fill-opacity="1" stroke="#000000" stroke-opacity="1" stroke-width="3.2"/>
<circle clip-path="url(#clip122)" cx="683.578" cy="1051.99" r="14.4" fill="#009af9" fill-rule="evenodd" fill-opacity="1" stroke="#000000" stroke-opacity="1" stroke-width="3.2"/>
<circle clip-path="url(#clip122)" cx="693.828" cy="1107.73" r="14.4" fill="#009af9" fill-rule="evenodd" fill-opacity="1" stroke="#000000" stroke-opacity="1" stroke-width="3.2"/>
<circle clip-path="url(#clip122)" cx="704.078" cy="1163.46" r="14.4" fill="#009af9" fill-rule="evenodd" fill-opacity="1" stroke="#000000" stroke-opacity="1" stroke-width="3.2"/>
<circle clip-path="url(#clip122)" cx="714.328" cy="1219.19" r="14.4" fill="#009af9" fill-rule="evenodd" fill-opacity="1" stroke="#000000" stroke-opacity="1" stroke-width="3.2"/>
<circle clip-path="url(#clip122)" cx="724.578" cy="1274.93" r="14.4" fill="#009af9" fill-rule="evenodd" fill-opacity="1" stroke="#000000" stroke-opacity="1" stroke-width="3.2"/>
<circle clip-path="url(#clip122)" cx="734.827" cy="1330.66" r="14.4" fill="#009af9" fill-rule="evenodd" fill-opacity="1" stroke="#000000" stroke-opacity="1" stroke-width="3.2"/>
<circle clip-path="url(#clip122)" cx="745.077" cy="1386.4" r="14.4" fill="#009af9" fill-rule="evenodd" fill-opacity="1" stroke="#000000" stroke-opacity="1" stroke-width="3.2"/>
<circle clip-path="url(#clip122)" cx="755.327" cy="1330.66" r="14.4" fill="#009af9" fill-rule="evenodd" fill-opacity="1" stroke="#000000" stroke-opacity="1" stroke-width="3.2"/>
<circle clip-path="url(#clip122)" cx="765.577" cy="1274.93" r="14.4" fill="#009af9" fill-rule="evenodd" fill-opacity="1" stroke="#000000" stroke-opacity="1" stroke-width="3.2"/>
<circle clip-path="url(#clip122)" cx="775.827" cy="1219.19" r="14.4" fill="#009af9" fill-rule="evenodd" fill-opacity="1" stroke="#000000" stroke-opacity="1" stroke-width="3.2"/>
<circle clip-path="url(#clip122)" cx="786.076" cy="1163.46" r="14.4" fill="#009af9" fill-rule="evenodd" fill-opacity="1" stroke="#000000" stroke-opacity="1" stroke-width="3.2"/>
<circle clip-path="url(#clip122)" cx="796.326" cy="1107.73" r="14.4" fill="#009af9" fill-rule="evenodd" fill-opacity="1" stroke="#000000" stroke-opacity="1" stroke-width="3.2"/>
<circle clip-path="url(#clip122)" cx="806.576" cy="1051.99" r="14.4" fill="#009af9" fill-rule="evenodd" fill-opacity="1" stroke="#000000" stroke-opacity="1" stroke-width="3.2"/>
<circle clip-path="url(#clip122)" cx="816.826" cy="996.26" r="14.4" fill="#009af9" fill-rule="evenodd" fill-opacity="1" stroke="#000000" stroke-opacity="1" stroke-width="3.2"/>
<circle clip-path="url(#clip122)" cx="827.075" cy="940.527" r="14.4" fill="#009af9" fill-rule="evenodd" fill-opacity="1" stroke="#000000" stroke-opacity="1" stroke-width="3.2"/>
<circle clip-path="url(#clip122)" cx="837.325" cy="884.793" r="14.4" fill="#009af9" fill-rule="evenodd" fill-opacity="1" stroke="#000000" stroke-opacity="1" stroke-width="3.2"/>
<circle clip-path="url(#clip122)" cx="847.575" cy="829.06" r="14.4" fill="#009af9" fill-rule="evenodd" fill-opacity="1" stroke="#000000" stroke-opacity="1" stroke-width="3.2"/>
<circle clip-path="url(#clip122)" cx="857.825" cy="773.326" r="14.4" fill="#009af9" fill-rule="evenodd" fill-opacity="1" stroke="#000000" stroke-opacity="1" stroke-width="3.2"/>
<circle clip-path="url(#clip122)" cx="868.075" cy="717.592" r="14.4" fill="#009af9" fill-rule="evenodd" fill-opacity="1" stroke="#000000" stroke-opacity="1" stroke-width="3.2"/>
<circle clip-path="url(#clip122)" cx="878.324" cy="661.859" r="14.4" fill="#009af9" fill-rule="evenodd" fill-opacity="1" stroke="#000000" stroke-opacity="1" stroke-width="3.2"/>
<circle clip-path="url(#clip122)" cx="888.574" cy="606.125" r="14.4" fill="#009af9" fill-rule="evenodd" fill-opacity="1" stroke="#000000" stroke-opacity="1" stroke-width="3.2"/>
<circle clip-path="url(#clip122)" cx="898.824" cy="550.392" r="14.4" fill="#009af9" fill-rule="evenodd" fill-opacity="1" stroke="#000000" stroke-opacity="1" stroke-width="3.2"/>
<circle clip-path="url(#clip122)" cx="909.074" cy="494.658" r="14.4" fill="#009af9" fill-rule="evenodd" fill-opacity="1" stroke="#000000" stroke-opacity="1" stroke-width="3.2"/>
<circle clip-path="url(#clip122)" cx="919.324" cy="438.924" r="14.4" fill="#009af9" fill-rule="evenodd" fill-opacity="1" stroke="#000000" stroke-opacity="1" stroke-width="3.2"/>
<circle clip-path="url(#clip122)" cx="929.573" cy="383.191" r="14.4" fill="#009af9" fill-rule="evenodd" fill-opacity="1" stroke="#000000" stroke-opacity="1" stroke-width="3.2"/>
<circle clip-path="url(#clip122)" cx="939.823" cy="327.457" r="14.4" fill="#009af9" fill-rule="evenodd" fill-opacity="1" stroke="#000000" stroke-opacity="1" stroke-width="3.2"/>
<circle clip-path="url(#clip122)" cx="950.073" cy="271.724" r="14.4" fill="#009af9" fill-rule="evenodd" fill-opacity="1" stroke="#000000" stroke-opacity="1" stroke-width="3.2"/>
<circle clip-path="url(#clip122)" cx="960.323" cy="215.99" r="14.4" fill="#009af9" fill-rule="evenodd" fill-opacity="1" stroke="#000000" stroke-opacity="1" stroke-width="3.2"/>
<circle clip-path="url(#clip122)" cx="970.572" cy="160.256" r="14.4" fill="#009af9" fill-rule="evenodd" fill-opacity="1" stroke="#000000" stroke-opacity="1" stroke-width="3.2"/>
<circle clip-path="url(#clip122)" cx="980.822" cy="215.99" r="14.4" fill="#009af9" fill-rule="evenodd" fill-opacity="1" stroke="#000000" stroke-opacity="1" stroke-width="3.2"/>
<circle clip-path="url(#clip122)" cx="991.072" cy="271.724" r="14.4" fill="#009af9" fill-rule="evenodd" fill-opacity="1" stroke="#000000" stroke-opacity="1" stroke-width="3.2"/>
<circle clip-path="url(#clip122)" cx="1001.32" cy="327.457" r="14.4" fill="#009af9" fill-rule="evenodd" fill-opacity="1" stroke="#000000" stroke-opacity="1" stroke-width="3.2"/>
<circle clip-path="url(#clip122)" cx="1011.57" cy="383.191" r="14.4" fill="#009af9" fill-rule="evenodd" fill-opacity="1" stroke="#000000" stroke-opacity="1" stroke-width="3.2"/>
<circle clip-path="url(#clip122)" cx="1021.82" cy="438.924" r="14.4" fill="#009af9" fill-rule="evenodd" fill-opacity="1" stroke="#000000" stroke-opacity="1" stroke-width="3.2"/>
<circle clip-path="url(#clip122)" cx="1032.07" cy="494.658" r="14.4" fill="#009af9" fill-rule="evenodd" fill-opacity="1" stroke="#000000" stroke-opacity="1" stroke-width="3.2"/>
<circle clip-path="url(#clip122)" cx="1042.32" cy="550.392" r="14.4" fill="#009af9" fill-rule="evenodd" fill-opacity="1" stroke="#000000" stroke-opacity="1" stroke-width="3.2"/>
<circle clip-path="url(#clip122)" cx="1052.57" cy="606.125" r="14.4" fill="#009af9" fill-rule="evenodd" fill-opacity="1" stroke="#000000" stroke-opacity="1" stroke-width="3.2"/>
<circle clip-path="url(#clip122)" cx="1062.82" cy="661.859" r="14.4" fill="#009af9" fill-rule="evenodd" fill-opacity="1" stroke="#000000" stroke-opacity="1" stroke-width="3.2"/>
<circle clip-path="url(#clip122)" cx="1073.07" cy="717.592" r="14.4" fill="#009af9" fill-rule="evenodd" fill-opacity="1" stroke="#000000" stroke-opacity="1" stroke-width="3.2"/>
<circle clip-path="url(#clip122)" cx="1083.32" cy="773.326" r="14.4" fill="#009af9" fill-rule="evenodd" fill-opacity="1" stroke="#000000" stroke-opacity="1" stroke-width="3.2"/>
<circle clip-path="url(#clip122)" cx="1093.57" cy="829.06" r="14.4" fill="#009af9" fill-rule="evenodd" fill-opacity="1" stroke="#000000" stroke-opacity="1" stroke-width="3.2"/>
<circle clip-path="url(#clip122)" cx="1103.82" cy="884.793" r="14.4" fill="#009af9" fill-rule="evenodd" fill-opacity="1" stroke="#000000" stroke-opacity="1" stroke-width="3.2"/>
<circle clip-path="url(#clip122)" cx="1114.07" cy="940.527" r="14.4" fill="#009af9" fill-rule="evenodd" fill-opacity="1" stroke="#000000" stroke-opacity="1" stroke-width="3.2"/>
<circle clip-path="url(#clip122)" cx="1124.32" cy="996.26" r="14.4" fill="#009af9" fill-rule="evenodd" fill-opacity="1" stroke="#000000" stroke-opacity="1" stroke-width="3.2"/>
<circle clip-path="url(#clip122)" cx="1134.57" cy="1051.99" r="14.4" fill="#009af9" fill-rule="evenodd" fill-opacity="1" stroke="#000000" stroke-opacity="1" stroke-width="3.2"/>
<circle clip-path="url(#clip122)" cx="1144.82" cy="1107.73" r="14.4" fill="#009af9" fill-rule="evenodd" fill-opacity="1" stroke="#000000" stroke-opacity="1" stroke-width="3.2"/>
<circle clip-path="url(#clip122)" cx="1155.07" cy="1163.46" r="14.4" fill="#009af9" fill-rule="evenodd" fill-opacity="1" stroke="#000000" stroke-opacity="1" stroke-width="3.2"/>
<circle clip-path="url(#clip122)" cx="1165.32" cy="1219.19" r="14.4" fill="#009af9" fill-rule="evenodd" fill-opacity="1" stroke="#000000" stroke-opacity="1" stroke-width="3.2"/>
<circle clip-path="url(#clip122)" cx="1175.57" cy="1274.93" r="14.4" fill="#009af9" fill-rule="evenodd" fill-opacity="1" stroke="#000000" stroke-opacity="1" stroke-width="3.2"/>
<circle clip-path="url(#clip122)" cx="1185.82" cy="1330.66" r="14.4" fill="#009af9" fill-rule="evenodd" fill-opacity="1" stroke="#000000" stroke-opacity="1" stroke-width="3.2"/>
<circle clip-path="url(#clip122)" cx="1196.07" cy="1386.4" r="14.4" fill="#009af9" fill-rule="evenodd" fill-opacity="1" stroke="#000000" stroke-opacity="1" stroke-width="3.2"/>
<circle clip-path="url(#clip122)" cx="1206.32" cy="1330.66" r="14.4" fill="#009af9" fill-rule="evenodd" fill-opacity="1" stroke="#000000" stroke-opacity="1" stroke-width="3.2"/>
<circle clip-path="url(#clip122)" cx="1216.57" cy="1274.93" r="14.4" fill="#009af9" fill-rule="evenodd" fill-opacity="1" stroke="#000000" stroke-opacity="1" stroke-width="3.2"/>
<circle clip-path="url(#clip122)" cx="1226.82" cy="1219.19" r="14.4" fill="#009af9" fill-rule="evenodd" fill-opacity="1" stroke="#000000" stroke-opacity="1" stroke-width="3.2"/>
<circle clip-path="url(#clip122)" cx="1237.07" cy="1163.46" r="14.4" fill="#009af9" fill-rule="evenodd" fill-opacity="1" stroke="#000000" stroke-opacity="1" stroke-width="3.2"/>
<circle clip-path="url(#clip122)" cx="1247.32" cy="1107.73" r="14.4" fill="#009af9" fill-rule="evenodd" fill-opacity="1" stroke="#000000" stroke-opacity="1" stroke-width="3.2"/>
<circle clip-path="url(#clip122)" cx="1257.57" cy="1051.99" r="14.4" fill="#009af9" fill-rule="evenodd" fill-opacity="1" stroke="#000000" stroke-opacity="1" stroke-width="3.2"/>
<circle clip-path="url(#clip122)" cx="1267.82" cy="996.26" r="14.4" fill="#009af9" fill-rule="evenodd" fill-opacity="1" stroke="#000000" stroke-opacity="1" stroke-width="3.2"/>
<circle clip-path="url(#clip122)" cx="1278.07" cy="940.527" r="14.4" fill="#009af9" fill-rule="evenodd" fill-opacity="1" stroke="#000000" stroke-opacity="1" stroke-width="3.2"/>
<circle clip-path="url(#clip122)" cx="1288.32" cy="884.793" r="14.4" fill="#009af9" fill-rule="evenodd" fill-opacity="1" stroke="#000000" stroke-opacity="1" stroke-width="3.2"/>
<circle clip-path="url(#clip122)" cx="1298.57" cy="829.06" r="14.4" fill="#009af9" fill-rule="evenodd" fill-opacity="1" stroke="#000000" stroke-opacity="1" stroke-width="3.2"/>
<circle clip-path="url(#clip122)" cx="1308.82" cy="773.326" r="14.4" fill="#009af9" fill-rule="evenodd" fill-opacity="1" stroke="#000000" stroke-opacity="1" stroke-width="3.2"/>
<circle clip-path="url(#clip122)" cx="1319.07" cy="717.592" r="14.4" fill="#009af9" fill-rule="evenodd" fill-opacity="1" stroke="#000000" stroke-opacity="1" stroke-width="3.2"/>
<circle clip-path="url(#clip122)" cx="1329.31" cy="661.859" r="14.4" fill="#009af9" fill-rule="evenodd" fill-opacity="1" stroke="#000000" stroke-opacity="1" stroke-width="3.2"/>
<circle clip-path="url(#clip122)" cx="1339.56" cy="606.125" r="14.4" fill="#009af9" fill-rule="evenodd" fill-opacity="1" stroke="#000000" stroke-opacity="1" stroke-width="3.2"/>
<circle clip-path="url(#clip122)" cx="1349.81" cy="550.392" r="14.4" fill="#009af9" fill-rule="evenodd" fill-opacity="1" stroke="#000000" stroke-opacity="1" stroke-width="3.2"/>
<circle clip-path="url(#clip122)" cx="1360.06" cy="494.658" r="14.4" fill="#009af9" fill-rule="evenodd" fill-opacity="1" stroke="#000000" stroke-opacity="1" stroke-width="3.2"/>
<circle clip-path="url(#clip122)" cx="1370.31" cy="438.924" r="14.4" fill="#009af9" fill-rule="evenodd" fill-opacity="1" stroke="#000000" stroke-opacity="1" stroke-width="3.2"/>
<circle clip-path="url(#clip122)" cx="1380.56" cy="383.191" r="14.4" fill="#009af9" fill-rule="evenodd" fill-opacity="1" stroke="#000000" stroke-opacity="1" stroke-width="3.2"/>
<circle clip-path="url(#clip122)" cx="1390.81" cy="327.457" r="14.4" fill="#009af9" fill-rule="evenodd" fill-opacity="1" stroke="#000000" stroke-opacity="1" stroke-width="3.2"/>
<circle clip-path="url(#clip122)" cx="1401.06" cy="271.724" r="14.4" fill="#009af9" fill-rule="evenodd" fill-opacity="1" stroke="#000000" stroke-opacity="1" stroke-width="3.2"/>
<circle clip-path="url(#clip122)" cx="1411.31" cy="215.99" r="14.4" fill="#009af9" fill-rule="evenodd" fill-opacity="1" stroke="#000000" stroke-opacity="1" stroke-width="3.2"/>
<circle clip-path="url(#clip122)" cx="1421.56" cy="160.256" r="14.4" fill="#009af9" fill-rule="evenodd" fill-opacity="1" stroke="#000000" stroke-opacity="1" stroke-width="3.2"/>
<circle clip-path="url(#clip122)" cx="1431.81" cy="215.99" r="14.4" fill="#009af9" fill-rule="evenodd" fill-opacity="1" stroke="#000000" stroke-opacity="1" stroke-width="3.2"/>
<circle clip-path="url(#clip122)" cx="1442.06" cy="271.724" r="14.4" fill="#009af9" fill-rule="evenodd" fill-opacity="1" stroke="#000000" stroke-opacity="1" stroke-width="3.2"/>
<circle clip-path="url(#clip122)" cx="1452.31" cy="327.457" r="14.4" fill="#009af9" fill-rule="evenodd" fill-opacity="1" stroke="#000000" stroke-opacity="1" stroke-width="3.2"/>
<circle clip-path="url(#clip122)" cx="1462.56" cy="383.191" r="14.4" fill="#009af9" fill-rule="evenodd" fill-opacity="1" stroke="#000000" stroke-opacity="1" stroke-width="3.2"/>
<circle clip-path="url(#clip122)" cx="1472.81" cy="438.924" r="14.4" fill="#009af9" fill-rule="evenodd" fill-opacity="1" stroke="#000000" stroke-opacity="1" stroke-width="3.2"/>
<circle clip-path="url(#clip122)" cx="1483.06" cy="494.658" r="14.4" fill="#009af9" fill-rule="evenodd" fill-opacity="1" stroke="#000000" stroke-opacity="1" stroke-width="3.2"/>
<circle clip-path="url(#clip122)" cx="1493.31" cy="550.392" r="14.4" fill="#009af9" fill-rule="evenodd" fill-opacity="1" stroke="#000000" stroke-opacity="1" stroke-width="3.2"/>
<circle clip-path="url(#clip122)" cx="1503.56" cy="606.125" r="14.4" fill="#009af9" fill-rule="evenodd" fill-opacity="1" stroke="#000000" stroke-opacity="1" stroke-width="3.2"/>
<circle clip-path="url(#clip122)" cx="1513.81" cy="661.859" r="14.4" fill="#009af9" fill-rule="evenodd" fill-opacity="1" stroke="#000000" stroke-opacity="1" stroke-width="3.2"/>
<circle clip-path="url(#clip122)" cx="1524.06" cy="717.592" r="14.4" fill="#009af9" fill-rule="evenodd" fill-opacity="1" stroke="#000000" stroke-opacity="1" stroke-width="3.2"/>
<circle clip-path="url(#clip122)" cx="1534.31" cy="773.326" r="14.4" fill="#009af9" fill-rule="evenodd" fill-opacity="1" stroke="#000000" stroke-opacity="1" stroke-width="3.2"/>
<circle clip-path="url(#clip122)" cx="1544.56" cy="829.06" r="14.4" fill="#009af9" fill-rule="evenodd" fill-opacity="1" stroke="#000000" stroke-opacity="1" stroke-width="3.2"/>
<circle clip-path="url(#clip122)" cx="1554.81" cy="884.793" r="14.4" fill="#009af9" fill-rule="evenodd" fill-opacity="1" stroke="#000000" stroke-opacity="1" stroke-width="3.2"/>
<circle clip-path="url(#clip122)" cx="1565.06" cy="940.527" r="14.4" fill="#009af9" fill-rule="evenodd" fill-opacity="1" stroke="#000000" stroke-opacity="1" stroke-width="3.2"/>
<circle clip-path="url(#clip122)" cx="1575.31" cy="996.26" r="14.4" fill="#009af9" fill-rule="evenodd" fill-opacity="1" stroke="#000000" stroke-opacity="1" stroke-width="3.2"/>
<circle clip-path="url(#clip122)" cx="1585.56" cy="1051.99" r="14.4" fill="#009af9" fill-rule="evenodd" fill-opacity="1" stroke="#000000" stroke-opacity="1" stroke-width="3.2"/>
<circle clip-path="url(#clip122)" cx="1595.81" cy="1107.73" r="14.4" fill="#009af9" fill-rule="evenodd" fill-opacity="1" stroke="#000000" stroke-opacity="1" stroke-width="3.2"/>
<circle clip-path="url(#clip122)" cx="1606.06" cy="1163.46" r="14.4" fill="#009af9" fill-rule="evenodd" fill-opacity="1" stroke="#000000" stroke-opacity="1" stroke-width="3.2"/>
<circle clip-path="url(#clip122)" cx="1616.31" cy="1219.19" r="14.4" fill="#009af9" fill-rule="evenodd" fill-opacity="1" stroke="#000000" stroke-opacity="1" stroke-width="3.2"/>
<circle clip-path="url(#clip122)" cx="1626.56" cy="1274.93" r="14.4" fill="#009af9" fill-rule="evenodd" fill-opacity="1" stroke="#000000" stroke-opacity="1" stroke-width="3.2"/>
<circle clip-path="url(#clip122)" cx="1636.81" cy="1330.66" r="14.4" fill="#009af9" fill-rule="evenodd" fill-opacity="1" stroke="#000000" stroke-opacity="1" stroke-width="3.2"/>
<circle clip-path="url(#clip122)" cx="1647.06" cy="1386.4" r="14.4" fill="#009af9" fill-rule="evenodd" fill-opacity="1" stroke="#000000" stroke-opacity="1" stroke-width="3.2"/>
<circle clip-path="url(#clip122)" cx="1657.31" cy="1330.66" r="14.4" fill="#009af9" fill-rule="evenodd" fill-opacity="1" stroke="#000000" stroke-opacity="1" stroke-width="3.2"/>
<circle clip-path="url(#clip122)" cx="1667.56" cy="1274.93" r="14.4" fill="#009af9" fill-rule="evenodd" fill-opacity="1" stroke="#000000" stroke-opacity="1" stroke-width="3.2"/>
<circle clip-path="url(#clip122)" cx="1677.81" cy="1219.19" r="14.4" fill="#009af9" fill-rule="evenodd" fill-opacity="1" stroke="#000000" stroke-opacity="1" stroke-width="3.2"/>
<circle clip-path="url(#clip122)" cx="1688.06" cy="1163.46" r="14.4" fill="#009af9" fill-rule="evenodd" fill-opacity="1" stroke="#000000" stroke-opacity="1" stroke-width="3.2"/>
<circle clip-path="url(#clip122)" cx="1698.31" cy="1107.73" r="14.4" fill="#009af9" fill-rule="evenodd" fill-opacity="1" stroke="#000000" stroke-opacity="1" stroke-width="3.2"/>
<circle clip-path="url(#clip122)" cx="1708.56" cy="1051.99" r="14.4" fill="#009af9" fill-rule="evenodd" fill-opacity="1" stroke="#000000" stroke-opacity="1" stroke-width="3.2"/>
<circle clip-path="url(#clip122)" cx="1718.81" cy="996.26" r="14.4" fill="#009af9" fill-rule="evenodd" fill-opacity="1" stroke="#000000" stroke-opacity="1" stroke-width="3.2"/>
<circle clip-path="url(#clip122)" cx="1729.06" cy="940.527" r="14.4" fill="#009af9" fill-rule="evenodd" fill-opacity="1" stroke="#000000" stroke-opacity="1" stroke-width="3.2"/>
<circle clip-path="url(#clip122)" cx="1739.31" cy="884.793" r="14.4" fill="#009af9" fill-rule="evenodd" fill-opacity="1" stroke="#000000" stroke-opacity="1" stroke-width="3.2"/>
<circle clip-path="url(#clip122)" cx="1749.56" cy="829.06" r="14.4" fill="#009af9" fill-rule="evenodd" fill-opacity="1" stroke="#000000" stroke-opacity="1" stroke-width="3.2"/>
<circle clip-path="url(#clip122)" cx="1759.81" cy="773.326" r="14.4" fill="#009af9" fill-rule="evenodd" fill-opacity="1" stroke="#000000" stroke-opacity="1" stroke-width="3.2"/>
<circle clip-path="url(#clip122)" cx="1770.06" cy="717.592" r="14.4" fill="#009af9" fill-rule="evenodd" fill-opacity="1" stroke="#000000" stroke-opacity="1" stroke-width="3.2"/>
<circle clip-path="url(#clip122)" cx="1780.31" cy="661.859" r="14.4" fill="#009af9" fill-rule="evenodd" fill-opacity="1" stroke="#000000" stroke-opacity="1" stroke-width="3.2"/>
<circle clip-path="url(#clip122)" cx="1790.56" cy="606.125" r="14.4" fill="#009af9" fill-rule="evenodd" fill-opacity="1" stroke="#000000" stroke-opacity="1" stroke-width="3.2"/>
<circle clip-path="url(#clip122)" cx="1800.81" cy="550.392" r="14.4" fill="#009af9" fill-rule="evenodd" fill-opacity="1" stroke="#000000" stroke-opacity="1" stroke-width="3.2"/>
<circle clip-path="url(#clip122)" cx="1811.05" cy="494.658" r="14.4" fill="#009af9" fill-rule="evenodd" fill-opacity="1" stroke="#000000" stroke-opacity="1" stroke-width="3.2"/>
<circle clip-path="url(#clip122)" cx="1821.3" cy="438.924" r="14.4" fill="#009af9" fill-rule="evenodd" fill-opacity="1" stroke="#000000" stroke-opacity="1" stroke-width="3.2"/>
<circle clip-path="url(#clip122)" cx="1831.55" cy="383.191" r="14.4" fill="#009af9" fill-rule="evenodd" fill-opacity="1" stroke="#000000" stroke-opacity="1" stroke-width="3.2"/>
<circle clip-path="url(#clip122)" cx="1841.8" cy="327.457" r="14.4" fill="#009af9" fill-rule="evenodd" fill-opacity="1" stroke="#000000" stroke-opacity="1" stroke-width="3.2"/>
<circle clip-path="url(#clip122)" cx="1852.05" cy="271.724" r="14.4" fill="#009af9" fill-rule="evenodd" fill-opacity="1" stroke="#000000" stroke-opacity="1" stroke-width="3.2"/>
<circle clip-path="url(#clip122)" cx="1862.3" cy="215.99" r="14.4" fill="#009af9" fill-rule="evenodd" fill-opacity="1" stroke="#000000" stroke-opacity="1" stroke-width="3.2"/>
<circle clip-path="url(#clip122)" cx="1872.55" cy="160.256" r="14.4" fill="#009af9" fill-rule="evenodd" fill-opacity="1" stroke="#000000" stroke-opacity="1" stroke-width="3.2"/>
<circle clip-path="url(#clip122)" cx="1882.8" cy="215.99" r="14.4" fill="#009af9" fill-rule="evenodd" fill-opacity="1" stroke="#000000" stroke-opacity="1" stroke-width="3.2"/>
<circle clip-path="url(#clip122)" cx="1893.05" cy="271.724" r="14.4" fill="#009af9" fill-rule="evenodd" fill-opacity="1" stroke="#000000" stroke-opacity="1" stroke-width="3.2"/>
<circle clip-path="url(#clip122)" cx="1903.3" cy="327.457" r="14.4" fill="#009af9" fill-rule="evenodd" fill-opacity="1" stroke="#000000" stroke-opacity="1" stroke-width="3.2"/>
<circle clip-path="url(#clip122)" cx="1913.55" cy="383.191" r="14.4" fill="#009af9" fill-rule="evenodd" fill-opacity="1" stroke="#000000" stroke-opacity="1" stroke-width="3.2"/>
<circle clip-path="url(#clip122)" cx="1923.8" cy="438.924" r="14.4" fill="#009af9" fill-rule="evenodd" fill-opacity="1" stroke="#000000" stroke-opacity="1" stroke-width="3.2"/>
<circle clip-path="url(#clip122)" cx="1934.05" cy="494.658" r="14.4" fill="#009af9" fill-rule="evenodd" fill-opacity="1" stroke="#000000" stroke-opacity="1" stroke-width="3.2"/>
<circle clip-path="url(#clip122)" cx="1944.3" cy="550.392" r="14.4" fill="#009af9" fill-rule="evenodd" fill-opacity="1" stroke="#000000" stroke-opacity="1" stroke-width="3.2"/>
<circle clip-path="url(#clip122)" cx="1954.55" cy="606.125" r="14.4" fill="#009af9" fill-rule="evenodd" fill-opacity="1" stroke="#000000" stroke-opacity="1" stroke-width="3.2"/>
<circle clip-path="url(#clip122)" cx="1964.8" cy="661.859" r="14.4" fill="#009af9" fill-rule="evenodd" fill-opacity="1" stroke="#000000" stroke-opacity="1" stroke-width="3.2"/>
<circle clip-path="url(#clip122)" cx="1975.05" cy="717.592" r="14.4" fill="#009af9" fill-rule="evenodd" fill-opacity="1" stroke="#000000" stroke-opacity="1" stroke-width="3.2"/>
<circle clip-path="url(#clip122)" cx="1985.3" cy="773.326" r="14.4" fill="#009af9" fill-rule="evenodd" fill-opacity="1" stroke="#000000" stroke-opacity="1" stroke-width="3.2"/>
<circle clip-path="url(#clip122)" cx="1995.55" cy="829.06" r="14.4" fill="#009af9" fill-rule="evenodd" fill-opacity="1" stroke="#000000" stroke-opacity="1" stroke-width="3.2"/>
<circle clip-path="url(#clip122)" cx="2005.8" cy="884.793" r="14.4" fill="#009af9" fill-rule="evenodd" fill-opacity="1" stroke="#000000" stroke-opacity="1" stroke-width="3.2"/>
<circle clip-path="url(#clip122)" cx="2016.05" cy="940.527" r="14.4" fill="#009af9" fill-rule="evenodd" fill-opacity="1" stroke="#000000" stroke-opacity="1" stroke-width="3.2"/>
<circle clip-path="url(#clip122)" cx="2026.3" cy="996.26" r="14.4" fill="#009af9" fill-rule="evenodd" fill-opacity="1" stroke="#000000" stroke-opacity="1" stroke-width="3.2"/>
<circle clip-path="url(#clip122)" cx="2036.55" cy="1051.99" r="14.4" fill="#009af9" fill-rule="evenodd" fill-opacity="1" stroke="#000000" stroke-opacity="1" stroke-width="3.2"/>
<circle clip-path="url(#clip122)" cx="2046.8" cy="1107.73" r="14.4" fill="#009af9" fill-rule="evenodd" fill-opacity="1" stroke="#000000" stroke-opacity="1" stroke-width="3.2"/>
<circle clip-path="url(#clip122)" cx="2057.05" cy="1163.46" r="14.4" fill="#009af9" fill-rule="evenodd" fill-opacity="1" stroke="#000000" stroke-opacity="1" stroke-width="3.2"/>
<circle clip-path="url(#clip122)" cx="2067.3" cy="1219.19" r="14.4" fill="#009af9" fill-rule="evenodd" fill-opacity="1" stroke="#000000" stroke-opacity="1" stroke-width="3.2"/>
<circle clip-path="url(#clip122)" cx="2077.55" cy="1274.93" r="14.4" fill="#009af9" fill-rule="evenodd" fill-opacity="1" stroke="#000000" stroke-opacity="1" stroke-width="3.2"/>
<circle clip-path="url(#clip122)" cx="2087.8" cy="1330.66" r="14.4" fill="#009af9" fill-rule="evenodd" fill-opacity="1" stroke="#000000" stroke-opacity="1" stroke-width="3.2"/>
<circle clip-path="url(#clip122)" cx="2098.05" cy="1386.4" r="14.4" fill="#009af9" fill-rule="evenodd" fill-opacity="1" stroke="#000000" stroke-opacity="1" stroke-width="3.2"/>
<circle clip-path="url(#clip122)" cx="2108.3" cy="1330.66" r="14.4" fill="#009af9" fill-rule="evenodd" fill-opacity="1" stroke="#000000" stroke-opacity="1" stroke-width="3.2"/>
<circle clip-path="url(#clip122)" cx="2118.55" cy="1274.93" r="14.4" fill="#009af9" fill-rule="evenodd" fill-opacity="1" stroke="#000000" stroke-opacity="1" stroke-width="3.2"/>
<circle clip-path="url(#clip122)" cx="2128.8" cy="1219.19" r="14.4" fill="#009af9" fill-rule="evenodd" fill-opacity="1" stroke="#000000" stroke-opacity="1" stroke-width="3.2"/>
<circle clip-path="url(#clip122)" cx="2139.05" cy="1163.46" r="14.4" fill="#009af9" fill-rule="evenodd" fill-opacity="1" stroke="#000000" stroke-opacity="1" stroke-width="3.2"/>
<circle clip-path="url(#clip122)" cx="2149.3" cy="1107.73" r="14.4" fill="#009af9" fill-rule="evenodd" fill-opacity="1" stroke="#000000" stroke-opacity="1" stroke-width="3.2"/>
<circle clip-path="url(#clip122)" cx="2159.55" cy="1051.99" r="14.4" fill="#009af9" fill-rule="evenodd" fill-opacity="1" stroke="#000000" stroke-opacity="1" stroke-width="3.2"/>
<circle clip-path="url(#clip122)" cx="2169.8" cy="996.26" r="14.4" fill="#009af9" fill-rule="evenodd" fill-opacity="1" stroke="#000000" stroke-opacity="1" stroke-width="3.2"/>
<circle clip-path="url(#clip122)" cx="2180.05" cy="940.527" r="14.4" fill="#009af9" fill-rule="evenodd" fill-opacity="1" stroke="#000000" stroke-opacity="1" stroke-width="3.2"/>
<circle clip-path="url(#clip122)" cx="2190.3" cy="884.793" r="14.4" fill="#009af9" fill-rule="evenodd" fill-opacity="1" stroke="#000000" stroke-opacity="1" stroke-width="3.2"/>
<circle clip-path="url(#clip122)" cx="2200.55" cy="829.06" r="14.4" fill="#009af9" fill-rule="evenodd" fill-opacity="1" stroke="#000000" stroke-opacity="1" stroke-width="3.2"/>
<circle clip-path="url(#clip122)" cx="2210.8" cy="773.326" r="14.4" fill="#009af9" fill-rule="evenodd" fill-opacity="1" stroke="#000000" stroke-opacity="1" stroke-width="3.2"/>
<circle clip-path="url(#clip122)" cx="2221.05" cy="717.592" r="14.4" fill="#009af9" fill-rule="evenodd" fill-opacity="1" stroke="#000000" stroke-opacity="1" stroke-width="3.2"/>
<circle clip-path="url(#clip122)" cx="2231.3" cy="661.859" r="14.4" fill="#009af9" fill-rule="evenodd" fill-opacity="1" stroke="#000000" stroke-opacity="1" stroke-width="3.2"/>
<circle clip-path="url(#clip122)" cx="2241.55" cy="606.125" r="14.4" fill="#009af9" fill-rule="evenodd" fill-opacity="1" stroke="#000000" stroke-opacity="1" stroke-width="3.2"/>
<circle clip-path="url(#clip122)" cx="2251.8" cy="550.392" r="14.4" fill="#009af9" fill-rule="evenodd" fill-opacity="1" stroke="#000000" stroke-opacity="1" stroke-width="3.2"/>
<circle clip-path="url(#clip122)" cx="2262.05" cy="494.658" r="14.4" fill="#009af9" fill-rule="evenodd" fill-opacity="1" stroke="#000000" stroke-opacity="1" stroke-width="3.2"/>
<circle clip-path="url(#clip122)" cx="2272.3" cy="438.924" r="14.4" fill="#009af9" fill-rule="evenodd" fill-opacity="1" stroke="#000000" stroke-opacity="1" stroke-width="3.2"/>
<circle clip-path="url(#clip122)" cx="2282.54" cy="383.191" r="14.4" fill="#009af9" fill-rule="evenodd" fill-opacity="1" stroke="#000000" stroke-opacity="1" stroke-width="3.2"/>
<circle clip-path="url(#clip122)" cx="2292.79" cy="327.457" r="14.4" fill="#009af9" fill-rule="evenodd" fill-opacity="1" stroke="#000000" stroke-opacity="1" stroke-width="3.2"/>
</svg>
