<?xml version="1.0" encoding="utf-8"?>
<svg xmlns="http://www.w3.org/2000/svg" xmlns:xlink="http://www.w3.org/1999/xlink" width="600" height="400" viewBox="0 0 2400 1600">
<defs>
  <clipPath id="clip160">
    <rect x="0" y="0" width="2400" height="1600"/>
  </clipPath>
</defs>
<path clip-path="url(#clip160)" d="
M0 1600 L2400 1600 L2400 0 L0 0  Z
  " fill="#ffffff" fill-rule="evenodd" fill-opacity="1"/>
<defs>
  <clipPath id="clip161">
    <rect x="480" y="0" width="1681" height="1600"/>
  </clipPath>
</defs>
<path clip-path="url(#clip160)" d="
M234.125 1423.18 L2352.76 1423.18 L2352.76 123.472 L234.125 123.472  Z
  " fill="#ffffff" fill-rule="evenodd" fill-opacity="1"/>
<defs>
  <clipPath id="clip162">
    <rect x="234" y="123" width="2120" height="1301"/>
  </clipPath>
</defs>
<polyline clip-path="url(#clip162)" style="stroke:#000000; stroke-linecap:round; stroke-linejoin:round; stroke-width:2; stroke-opacity:0.1; fill:none" points="
  294.087,1423.18 294.087,123.472 
  "/>
<polyline clip-path="url(#clip162)" style="stroke:#000000; stroke-linecap:round; stroke-linejoin:round; stroke-width:2; stroke-opacity:0.1; fill:none" points="
  922.611,1423.18 922.611,123.472 
  "/>
<polyline clip-path="url(#clip162)" style="stroke:#000000; stroke-linecap:round; stroke-linejoin:round; stroke-width:2; stroke-opacity:0.1; fill:none" points="
  1551.14,1423.18 1551.14,123.472 
  "/>
<polyline clip-path="url(#clip162)" style="stroke:#000000; stroke-linecap:round; stroke-linejoin:round; stroke-width:2; stroke-opacity:0.1; fill:none" points="
  2179.66,1423.18 2179.66,123.472 
  "/>
<polyline clip-path="url(#clip160)" style="stroke:#000000; stroke-linecap:round; stroke-linejoin:round; stroke-width:4; stroke-opacity:1; fill:none" points="
  234.125,1423.18 2352.76,1423.18 
  "/>
<polyline clip-path="url(#clip160)" style="stroke:#000000; stroke-linecap:round; stroke-linejoin:round; stroke-width:4; stroke-opacity:1; fill:none" points="
  234.125,123.472 2352.76,123.472 
  "/>
<polyline clip-path="url(#clip160)" style="stroke:#000000; stroke-linecap:round; stroke-linejoin:round; stroke-width:4; stroke-opacity:1; fill:none" points="
  294.087,1423.18 294.087,1404.28 
  "/>
<polyline clip-path="url(#clip160)" style="stroke:#000000; stroke-linecap:round; stroke-linejoin:round; stroke-width:4; stroke-opacity:1; fill:none" points="
  922.611,1423.18 922.611,1404.28 
  "/>
<polyline clip-path="url(#clip160)" style="stroke:#000000; stroke-linecap:round; stroke-linejoin:round; stroke-width:4; stroke-opacity:1; fill:none" points="
  1551.14,1423.18 1551.14,1404.28 
  "/>
<polyline clip-path="url(#clip160)" style="stroke:#000000; stroke-linecap:round; stroke-linejoin:round; stroke-width:4; stroke-opacity:1; fill:none" points="
  2179.66,1423.18 2179.66,1404.28 
  "/>
<path clip-path="url(#clip160)" d="M294.087 1454.1 Q290.476 1454.1 288.647 1457.66 Q286.841 1461.2 286.841 1468.33 Q286.841 1475.44 288.647 1479.01 Q290.476 1482.55 294.087 1482.55 Q297.721 1482.55 299.526 1479.01 Q301.355 1475.44 301.355 1468.33 Q301.355 1461.2 299.526 1457.66 Q297.721 1454.1 294.087 1454.1 M294.087 1450.39 Q299.897 1450.39 302.952 1455 Q306.031 1459.58 306.031 1468.33 Q306.031 1477.06 302.952 1481.67 Q299.897 1486.25 294.087 1486.25 Q288.277 1486.25 285.198 1481.67 Q282.142 1477.06 282.142 1468.33 Q282.142 1459.58 285.198 1455 Q288.277 1450.39 294.087 1450.39 Z" fill="#000000" fill-rule="evenodd" fill-opacity="1" /><path clip-path="url(#clip160)" d="M912.889 1451.02 L931.245 1451.02 L931.245 1454.96 L917.171 1454.96 L917.171 1463.43 Q918.19 1463.08 919.208 1462.92 Q920.227 1462.73 921.245 1462.73 Q927.032 1462.73 930.412 1465.9 Q933.792 1469.08 933.792 1474.49 Q933.792 1480.07 930.32 1483.17 Q926.847 1486.25 920.528 1486.25 Q918.352 1486.25 916.083 1485.88 Q913.838 1485.51 911.431 1484.77 L911.431 1480.07 Q913.514 1481.2 915.736 1481.76 Q917.958 1482.32 920.435 1482.32 Q924.44 1482.32 926.778 1480.21 Q929.116 1478.1 929.116 1474.49 Q929.116 1470.88 926.778 1468.77 Q924.44 1466.67 920.435 1466.67 Q918.56 1466.67 916.685 1467.08 Q914.833 1467.5 912.889 1468.38 L912.889 1451.02 Z" fill="#000000" fill-rule="evenodd" fill-opacity="1" /><path clip-path="url(#clip160)" d="M1525.82 1481.64 L1533.46 1481.64 L1533.46 1455.28 L1525.15 1456.95 L1525.15 1452.69 L1533.42 1451.02 L1538.09 1451.02 L1538.09 1481.64 L1545.73 1481.64 L1545.73 1485.58 L1525.82 1485.58 L1525.82 1481.64 Z" fill="#000000" fill-rule="evenodd" fill-opacity="1" /><path clip-path="url(#clip160)" d="M1565.18 1454.1 Q1561.56 1454.1 1559.74 1457.66 Q1557.93 1461.2 1557.93 1468.33 Q1557.93 1475.44 1559.74 1479.01 Q1561.56 1482.55 1565.18 1482.55 Q1568.81 1482.55 1570.61 1479.01 Q1572.44 1475.44 1572.44 1468.33 Q1572.44 1461.2 1570.61 1457.66 Q1568.81 1454.1 1565.18 1454.1 M1565.18 1450.39 Q1570.99 1450.39 1574.04 1455 Q1577.12 1459.58 1577.12 1468.33 Q1577.12 1477.06 1574.04 1481.67 Q1570.99 1486.25 1565.18 1486.25 Q1559.36 1486.25 1556.29 1481.67 Q1553.23 1477.06 1553.23 1468.33 Q1553.23 1459.58 1556.29 1455 Q1559.36 1450.39 1565.18 1450.39 Z" fill="#000000" fill-rule="evenodd" fill-opacity="1" /><path clip-path="url(#clip160)" d="M2154.85 1481.64 L2162.48 1481.64 L2162.48 1455.28 L2154.17 1456.95 L2154.17 1452.69 L2162.44 1451.02 L2167.11 1451.02 L2167.11 1481.64 L2174.75 1481.64 L2174.75 1485.58 L2154.85 1485.58 L2154.85 1481.64 Z" fill="#000000" fill-rule="evenodd" fill-opacity="1" /><path clip-path="url(#clip160)" d="M2184.24 1451.02 L2202.6 1451.02 L2202.6 1454.96 L2188.53 1454.96 L2188.53 1463.43 Q2189.54 1463.08 2190.56 1462.92 Q2191.58 1462.73 2192.6 1462.73 Q2198.39 1462.73 2201.77 1465.9 Q2205.15 1469.08 2205.15 1474.49 Q2205.15 1480.07 2201.67 1483.17 Q2198.2 1486.25 2191.88 1486.25 Q2189.71 1486.25 2187.44 1485.88 Q2185.19 1485.51 2182.79 1484.77 L2182.79 1480.07 Q2184.87 1481.2 2187.09 1481.76 Q2189.31 1482.32 2191.79 1482.32 Q2195.79 1482.32 2198.13 1480.21 Q2200.47 1478.1 2200.47 1474.49 Q2200.47 1470.88 2198.13 1468.77 Q2195.79 1466.67 2191.79 1466.67 Q2189.91 1466.67 2188.04 1467.08 Q2186.19 1467.5 2184.24 1468.38 L2184.24 1451.02 Z" fill="#000000" fill-rule="evenodd" fill-opacity="1" /><path clip-path="url(#clip160)" d="M1160.7 1522.27 L1160.7 1532.4 L1172.76 1532.4 L1172.76 1536.95 L1160.7 1536.95 L1160.7 1556.3 Q1160.7 1560.66 1161.88 1561.9 Q1163.09 1563.14 1166.75 1563.14 L1172.76 1563.14 L1172.76 1568.04 L1166.75 1568.04 Q1159.97 1568.04 1157.39 1565.53 Q1154.81 1562.98 1154.81 1556.3 L1154.81 1536.95 L1150.51 1536.95 L1150.51 1532.4 L1154.81 1532.4 L1154.81 1522.27 L1160.7 1522.27 Z" fill="#000000" fill-rule="evenodd" fill-opacity="1" /><path clip-path="url(#clip160)" d="M1180.47 1532.4 L1186.32 1532.4 L1186.32 1568.04 L1180.47 1568.04 L1180.47 1532.4 M1180.47 1518.52 L1186.32 1518.52 L1186.32 1525.93 L1180.47 1525.93 L1180.47 1518.52 Z" fill="#000000" fill-rule="evenodd" fill-opacity="1" /><path clip-path="url(#clip160)" d="M1226.33 1539.24 Q1228.53 1535.29 1231.58 1533.41 Q1234.64 1531.54 1238.78 1531.54 Q1244.35 1531.54 1247.37 1535.45 Q1250.39 1539.33 1250.39 1546.53 L1250.39 1568.04 L1244.5 1568.04 L1244.5 1546.72 Q1244.5 1541.59 1242.69 1539.11 Q1240.88 1536.63 1237.15 1536.63 Q1232.6 1536.63 1229.96 1539.65 Q1227.32 1542.68 1227.32 1547.9 L1227.32 1568.04 L1221.43 1568.04 L1221.43 1546.72 Q1221.43 1541.56 1219.61 1539.11 Q1217.8 1536.63 1214.01 1536.63 Q1209.52 1536.63 1206.88 1539.68 Q1204.24 1542.71 1204.24 1547.9 L1204.24 1568.04 L1198.35 1568.04 L1198.35 1532.4 L1204.24 1532.4 L1204.24 1537.93 Q1206.25 1534.66 1209.05 1533.1 Q1211.85 1531.54 1215.7 1531.54 Q1219.58 1531.54 1222.29 1533.51 Q1225.03 1535.48 1226.33 1539.24 Z" fill="#000000" fill-rule="evenodd" fill-opacity="1" /><path clip-path="url(#clip160)" d="M1292.57 1548.76 L1292.57 1551.62 L1265.64 1551.62 Q1266.02 1557.67 1269.27 1560.85 Q1272.55 1564 1278.37 1564 Q1281.74 1564 1284.89 1563.17 Q1288.08 1562.35 1291.2 1560.69 L1291.2 1566.23 Q1288.05 1567.57 1284.74 1568.27 Q1281.43 1568.97 1278.02 1568.97 Q1269.49 1568.97 1264.49 1564 Q1259.53 1559.04 1259.53 1550.57 Q1259.53 1541.82 1264.24 1536.69 Q1268.98 1531.54 1277 1531.54 Q1284.19 1531.54 1288.36 1536.18 Q1292.57 1540.8 1292.57 1548.76 M1286.71 1547.04 Q1286.65 1542.23 1284 1539.37 Q1281.39 1536.5 1277.06 1536.5 Q1272.16 1536.5 1269.2 1539.27 Q1266.28 1542.04 1265.83 1547.07 L1286.71 1547.04 Z" fill="#000000" fill-rule="evenodd" fill-opacity="1" /><path clip-path="url(#clip160)" d="M1303.67 1559.96 L1310.39 1559.96 L1310.39 1565.43 L1305.17 1575.62 L1301.06 1575.62 L1303.67 1565.43 L1303.67 1559.96 Z" fill="#000000" fill-rule="evenodd" fill-opacity="1" /><path clip-path="url(#clip160)" d="M1373.25 1546.53 L1373.25 1568.04 L1367.39 1568.04 L1367.39 1546.72 Q1367.39 1541.66 1365.42 1539.14 Q1363.45 1536.63 1359.5 1536.63 Q1354.76 1536.63 1352.02 1539.65 Q1349.28 1542.68 1349.28 1547.9 L1349.28 1568.04 L1343.4 1568.04 L1343.4 1518.52 L1349.28 1518.52 L1349.28 1537.93 Q1351.38 1534.72 1354.22 1533.13 Q1357.08 1531.54 1360.81 1531.54 Q1366.95 1531.54 1370.1 1535.36 Q1373.25 1539.14 1373.25 1546.53 Z" fill="#000000" fill-rule="evenodd" fill-opacity="1" /><path clip-path="url(#clip160)" d="M1405.59 1537.87 Q1404.6 1537.3 1403.42 1537.04 Q1402.28 1536.76 1400.88 1536.76 Q1395.91 1536.76 1393.24 1540 Q1390.6 1543.22 1390.6 1549.27 L1390.6 1568.04 L1384.71 1568.04 L1384.71 1532.4 L1390.6 1532.4 L1390.6 1537.93 Q1392.44 1534.69 1395.4 1533.13 Q1398.36 1531.54 1402.6 1531.54 Q1403.2 1531.54 1403.93 1531.63 Q1404.67 1531.7 1405.56 1531.85 L1405.59 1537.87 Z" fill="#000000" fill-rule="evenodd" fill-opacity="1" /><path clip-path="url(#clip160)" d="M1434.46 1533.45 L1434.46 1538.98 Q1431.97 1537.71 1429.3 1537.07 Q1426.63 1536.44 1423.76 1536.44 Q1419.4 1536.44 1417.21 1537.77 Q1415.04 1539.11 1415.04 1541.79 Q1415.04 1543.82 1416.6 1545 Q1418.16 1546.15 1422.87 1547.2 L1424.88 1547.64 Q1431.11 1548.98 1433.72 1551.43 Q1436.37 1553.85 1436.37 1558.21 Q1436.37 1563.17 1432.42 1566.07 Q1428.51 1568.97 1421.63 1568.97 Q1418.77 1568.97 1415.65 1568.39 Q1412.56 1567.85 1409.12 1566.74 L1409.12 1560.69 Q1412.37 1562.38 1415.52 1563.24 Q1418.67 1564.07 1421.76 1564.07 Q1425.9 1564.07 1428.12 1562.66 Q1430.35 1561.23 1430.35 1558.65 Q1430.35 1556.27 1428.73 1554.99 Q1427.14 1553.72 1421.69 1552.54 L1419.66 1552.07 Q1414.21 1550.92 1411.8 1548.56 Q1409.38 1546.18 1409.38 1542.04 Q1409.38 1537.01 1412.94 1534.27 Q1416.51 1531.54 1423.06 1531.54 Q1426.31 1531.54 1429.17 1532.01 Q1432.04 1532.49 1434.46 1533.45 Z" fill="#000000" fill-rule="evenodd" fill-opacity="1" /><polyline clip-path="url(#clip162)" style="stroke:#000000; stroke-linecap:round; stroke-linejoin:round; stroke-width:2; stroke-opacity:0.1; fill:none" points="
  234.125,1321.86 2352.76,1321.86 
  "/>
<polyline clip-path="url(#clip162)" style="stroke:#000000; stroke-linecap:round; stroke-linejoin:round; stroke-width:2; stroke-opacity:0.1; fill:none" points="
  234.125,1036.31 2352.76,1036.31 
  "/>
<polyline clip-path="url(#clip162)" style="stroke:#000000; stroke-linecap:round; stroke-linejoin:round; stroke-width:2; stroke-opacity:0.1; fill:none" points="
  234.125,750.768 2352.76,750.768 
  "/>
<polyline clip-path="url(#clip162)" style="stroke:#000000; stroke-linecap:round; stroke-linejoin:round; stroke-width:2; stroke-opacity:0.1; fill:none" points="
  234.125,465.221 2352.76,465.221 
  "/>
<polyline clip-path="url(#clip162)" style="stroke:#000000; stroke-linecap:round; stroke-linejoin:round; stroke-width:2; stroke-opacity:0.1; fill:none" points="
  234.125,179.674 2352.76,179.674 
  "/>
<polyline clip-path="url(#clip160)" style="stroke:#000000; stroke-linecap:round; stroke-linejoin:round; stroke-width:4; stroke-opacity:1; fill:none" points="
  234.125,1423.18 234.125,123.472 
  "/>
<polyline clip-path="url(#clip160)" style="stroke:#000000; stroke-linecap:round; stroke-linejoin:round; stroke-width:4; stroke-opacity:1; fill:none" points="
  2352.76,1423.18 2352.76,123.472 
  "/>
<polyline clip-path="url(#clip160)" style="stroke:#000000; stroke-linecap:round; stroke-linejoin:round; stroke-width:4; stroke-opacity:1; fill:none" points="
  234.125,1321.86 253.023,1321.86 
  "/>
<polyline clip-path="url(#clip160)" style="stroke:#000000; stroke-linecap:round; stroke-linejoin:round; stroke-width:4; stroke-opacity:1; fill:none" points="
  234.125,1036.31 253.023,1036.31 
  "/>
<polyline clip-path="url(#clip160)" style="stroke:#000000; stroke-linecap:round; stroke-linejoin:round; stroke-width:4; stroke-opacity:1; fill:none" points="
  234.125,750.768 253.023,750.768 
  "/>
<polyline clip-path="url(#clip160)" style="stroke:#000000; stroke-linecap:round; stroke-linejoin:round; stroke-width:4; stroke-opacity:1; fill:none" points="
  234.125,465.221 253.023,465.221 
  "/>
<polyline clip-path="url(#clip160)" style="stroke:#000000; stroke-linecap:round; stroke-linejoin:round; stroke-width:4; stroke-opacity:1; fill:none" points="
  234.125,179.674 253.023,179.674 
  "/>
<path clip-path="url(#clip160)" d="M186.181 1307.66 Q182.57 1307.66 180.741 1311.23 Q178.936 1314.77 178.936 1321.9 Q178.936 1329 180.741 1332.57 Q182.57 1336.11 186.181 1336.11 Q189.815 1336.11 191.621 1332.57 Q193.45 1329 193.45 1321.9 Q193.45 1314.77 191.621 1311.23 Q189.815 1307.66 186.181 1307.66 M186.181 1303.96 Q191.991 1303.96 195.047 1308.56 Q198.125 1313.15 198.125 1321.9 Q198.125 1330.62 195.047 1335.23 Q191.991 1339.81 186.181 1339.81 Q180.371 1339.81 177.292 1335.23 Q174.237 1330.62 174.237 1321.9 Q174.237 1313.15 177.292 1308.56 Q180.371 1303.96 186.181 1303.96 Z" fill="#000000" fill-rule="evenodd" fill-opacity="1" /><path clip-path="url(#clip160)" d="M146.066 1019.03 L164.422 1019.03 L164.422 1022.97 L150.348 1022.97 L150.348 1031.44 Q151.366 1031.1 152.385 1030.93 Q153.403 1030.75 154.422 1030.75 Q160.209 1030.75 163.589 1033.92 Q166.968 1037.09 166.968 1042.51 Q166.968 1048.09 163.496 1051.19 Q160.024 1054.27 153.704 1054.27 Q151.528 1054.27 149.26 1053.9 Q147.015 1053.53 144.607 1052.78 L144.607 1048.09 Q146.691 1049.22 148.913 1049.78 Q151.135 1050.33 153.612 1050.33 Q157.616 1050.33 159.954 1048.22 Q162.292 1046.12 162.292 1042.51 Q162.292 1038.9 159.954 1036.79 Q157.616 1034.68 153.612 1034.68 Q151.737 1034.68 149.862 1035.1 Q148.01 1035.52 146.066 1036.4 L146.066 1019.03 Z" fill="#000000" fill-rule="evenodd" fill-opacity="1" /><path clip-path="url(#clip160)" d="M186.181 1022.11 Q182.57 1022.11 180.741 1025.68 Q178.936 1029.22 178.936 1036.35 Q178.936 1043.46 180.741 1047.02 Q182.57 1050.56 186.181 1050.56 Q189.815 1050.56 191.621 1047.02 Q193.45 1043.46 193.45 1036.35 Q193.45 1029.22 191.621 1025.68 Q189.815 1022.11 186.181 1022.11 M186.181 1018.41 Q191.991 1018.41 195.047 1023.02 Q198.125 1027.6 198.125 1036.35 Q198.125 1045.08 195.047 1049.68 Q191.991 1054.27 186.181 1054.27 Q180.371 1054.27 177.292 1049.68 Q174.237 1045.08 174.237 1036.35 Q174.237 1027.6 177.292 1023.02 Q180.371 1018.41 186.181 1018.41 Z" fill="#000000" fill-rule="evenodd" fill-opacity="1" /><path clip-path="url(#clip160)" d="M116.668 764.113 L124.306 764.113 L124.306 737.747 L115.996 739.414 L115.996 735.154 L124.26 733.488 L128.936 733.488 L128.936 764.113 L136.575 764.113 L136.575 768.048 L116.668 768.048 L116.668 764.113 Z" fill="#000000" fill-rule="evenodd" fill-opacity="1" /><path clip-path="url(#clip160)" d="M156.019 736.566 Q152.408 736.566 150.579 740.131 Q148.774 743.673 148.774 750.802 Q148.774 757.909 150.579 761.474 Q152.408 765.015 156.019 765.015 Q159.653 765.015 161.459 761.474 Q163.288 757.909 163.288 750.802 Q163.288 743.673 161.459 740.131 Q159.653 736.566 156.019 736.566 M156.019 732.863 Q161.829 732.863 164.885 737.469 Q167.964 742.053 167.964 750.802 Q167.964 759.529 164.885 764.136 Q161.829 768.719 156.019 768.719 Q150.209 768.719 147.13 764.136 Q144.075 759.529 144.075 750.802 Q144.075 742.053 147.13 737.469 Q150.209 732.863 156.019 732.863 Z" fill="#000000" fill-rule="evenodd" fill-opacity="1" /><path clip-path="url(#clip160)" d="M186.181 736.566 Q182.57 736.566 180.741 740.131 Q178.936 743.673 178.936 750.802 Q178.936 757.909 180.741 761.474 Q182.57 765.015 186.181 765.015 Q189.815 765.015 191.621 761.474 Q193.45 757.909 193.45 750.802 Q193.45 743.673 191.621 740.131 Q189.815 736.566 186.181 736.566 M186.181 732.863 Q191.991 732.863 195.047 737.469 Q198.125 742.053 198.125 750.802 Q198.125 759.529 195.047 764.136 Q191.991 768.719 186.181 768.719 Q180.371 768.719 177.292 764.136 Q174.237 759.529 174.237 750.802 Q174.237 742.053 177.292 737.469 Q180.371 732.863 186.181 732.863 Z" fill="#000000" fill-rule="evenodd" fill-opacity="1" /><path clip-path="url(#clip160)" d="M116.668 478.565 L124.306 478.565 L124.306 452.2 L115.996 453.867 L115.996 449.607 L124.26 447.941 L128.936 447.941 L128.936 478.565 L136.575 478.565 L136.575 482.501 L116.668 482.501 L116.668 478.565 Z" fill="#000000" fill-rule="evenodd" fill-opacity="1" /><path clip-path="url(#clip160)" d="M146.066 447.941 L164.422 447.941 L164.422 451.876 L150.348 451.876 L150.348 460.348 Q151.366 460.001 152.385 459.839 Q153.403 459.654 154.422 459.654 Q160.209 459.654 163.589 462.825 Q166.968 465.996 166.968 471.413 Q166.968 476.991 163.496 480.093 Q160.024 483.172 153.704 483.172 Q151.528 483.172 149.26 482.802 Q147.015 482.431 144.607 481.69 L144.607 476.991 Q146.691 478.126 148.913 478.681 Q151.135 479.237 153.612 479.237 Q157.616 479.237 159.954 477.13 Q162.292 475.024 162.292 471.413 Q162.292 467.802 159.954 465.695 Q157.616 463.589 153.612 463.589 Q151.737 463.589 149.862 464.005 Q148.01 464.422 146.066 465.302 L146.066 447.941 Z" fill="#000000" fill-rule="evenodd" fill-opacity="1" /><path clip-path="url(#clip160)" d="M186.181 451.019 Q182.57 451.019 180.741 454.584 Q178.936 458.126 178.936 465.255 Q178.936 472.362 180.741 475.927 Q182.57 479.468 186.181 479.468 Q189.815 479.468 191.621 475.927 Q193.45 472.362 193.45 465.255 Q193.45 458.126 191.621 454.584 Q189.815 451.019 186.181 451.019 M186.181 447.316 Q191.991 447.316 195.047 451.922 Q198.125 456.505 198.125 465.255 Q198.125 473.982 195.047 478.589 Q191.991 483.172 186.181 483.172 Q180.371 483.172 177.292 478.589 Q174.237 473.982 174.237 465.255 Q174.237 456.505 177.292 451.922 Q180.371 447.316 186.181 447.316 Z" fill="#000000" fill-rule="evenodd" fill-opacity="1" /><path clip-path="url(#clip160)" d="M119.885 193.018 L136.204 193.018 L136.204 196.954 L114.26 196.954 L114.26 193.018 Q116.922 190.264 121.505 185.634 Q126.112 180.981 127.292 179.639 Q129.538 177.116 130.417 175.38 Q131.32 173.62 131.32 171.93 Q131.32 169.176 129.376 167.44 Q127.455 165.704 124.353 165.704 Q122.154 165.704 119.7 166.468 Q117.269 167.231 114.492 168.782 L114.492 164.06 Q117.316 162.926 119.769 162.347 Q122.223 161.769 124.26 161.769 Q129.63 161.769 132.825 164.454 Q136.019 167.139 136.019 171.63 Q136.019 173.759 135.209 175.68 Q134.422 177.579 132.316 180.171 Q131.737 180.842 128.635 184.06 Q125.533 187.254 119.885 193.018 Z" fill="#000000" fill-rule="evenodd" fill-opacity="1" /><path clip-path="url(#clip160)" d="M156.019 165.472 Q152.408 165.472 150.579 169.037 Q148.774 172.579 148.774 179.708 Q148.774 186.815 150.579 190.379 Q152.408 193.921 156.019 193.921 Q159.653 193.921 161.459 190.379 Q163.288 186.815 163.288 179.708 Q163.288 172.579 161.459 169.037 Q159.653 165.472 156.019 165.472 M156.019 161.769 Q161.829 161.769 164.885 166.375 Q167.964 170.958 167.964 179.708 Q167.964 188.435 164.885 193.041 Q161.829 197.625 156.019 197.625 Q150.209 197.625 147.13 193.041 Q144.075 188.435 144.075 179.708 Q144.075 170.958 147.13 166.375 Q150.209 161.769 156.019 161.769 Z" fill="#000000" fill-rule="evenodd" fill-opacity="1" /><path clip-path="url(#clip160)" d="M186.181 165.472 Q182.57 165.472 180.741 169.037 Q178.936 172.579 178.936 179.708 Q178.936 186.815 180.741 190.379 Q182.57 193.921 186.181 193.921 Q189.815 193.921 191.621 190.379 Q193.45 186.815 193.45 179.708 Q193.45 172.579 191.621 169.037 Q189.815 165.472 186.181 165.472 M186.181 161.769 Q191.991 161.769 195.047 166.375 Q198.125 170.958 198.125 179.708 Q198.125 188.435 195.047 193.041 Q191.991 197.625 186.181 197.625 Q180.371 197.625 177.292 193.041 Q174.237 188.435 174.237 179.708 Q174.237 170.958 177.292 166.375 Q180.371 161.769 186.181 161.769 Z" fill="#000000" fill-rule="evenodd" fill-opacity="1" /><path clip-path="url(#clip160)" d="M33.7671 952.202 L14.479 952.202 L14.479 946.346 L64.0042 946.346 L64.0042 952.202 L58.657 952.202 Q61.8398 954.048 63.3994 956.881 Q64.9272 959.682 64.9272 963.629 Q64.9272 970.09 59.771 974.164 Q54.6147 978.206 46.212 978.206 Q37.8093 978.206 32.6531 974.164 Q27.4968 970.09 27.4968 963.629 Q27.4968 959.682 29.0564 956.881 Q30.5842 954.048 33.7671 952.202 M46.212 972.159 Q52.6732 972.159 56.3653 969.517 Q60.0256 966.843 60.0256 962.196 Q60.0256 957.55 56.3653 954.876 Q52.6732 952.202 46.212 952.202 Q39.7508 952.202 36.0905 954.876 Q32.3984 957.55 32.3984 962.196 Q32.3984 966.843 36.0905 969.517 Q39.7508 972.159 46.212 972.159 Z" fill="#000000" fill-rule="evenodd" fill-opacity="1" /><path clip-path="url(#clip160)" d="M28.3562 934.283 L28.3562 928.426 L64.0042 928.426 L64.0042 934.283 L28.3562 934.283 M14.479 934.283 L14.479 928.426 L21.895 928.426 L21.895 934.283 L14.479 934.283 Z" fill="#000000" fill-rule="evenodd" fill-opacity="1" /><path clip-path="url(#clip160)" d="M29.4065 893.447 L34.9447 893.447 Q33.6716 895.929 33.035 898.603 Q32.3984 901.277 32.3984 904.141 Q32.3984 908.502 33.7352 910.698 Q35.072 912.862 37.7456 912.862 Q39.7826 912.862 40.9603 911.303 Q42.1061 909.743 43.1565 905.032 L43.6021 903.027 Q44.9389 896.789 47.3897 894.179 Q49.8086 891.537 54.1691 891.537 Q59.1344 891.537 62.0308 895.484 Q64.9272 899.399 64.9272 906.274 Q64.9272 909.138 64.3543 912.258 Q63.8132 915.345 62.6992 918.782 L56.6518 918.782 Q58.3387 915.536 59.198 912.385 Q60.0256 909.234 60.0256 906.146 Q60.0256 902.009 58.6251 899.781 Q57.1929 897.553 54.6147 897.553 Q52.2276 897.553 50.9545 899.176 Q49.6813 900.767 48.5037 906.21 L48.0262 908.247 Q46.8804 913.69 44.5251 916.109 Q42.138 918.528 38.0002 918.528 Q32.9713 918.528 30.2341 914.963 Q27.4968 911.398 27.4968 904.841 Q27.4968 901.595 27.9743 898.73 Q28.4517 895.866 29.4065 893.447 Z" fill="#000000" fill-rule="evenodd" fill-opacity="1" /><path clip-path="url(#clip160)" d="M18.2347 876.419 L28.3562 876.419 L28.3562 864.356 L32.9077 864.356 L32.9077 876.419 L52.2594 876.419 Q56.6199 876.419 57.8613 875.241 Q59.1026 874.031 59.1026 870.371 L59.1026 864.356 L64.0042 864.356 L64.0042 870.371 Q64.0042 877.151 61.4897 879.729 Q58.9434 882.307 52.2594 882.307 L32.9077 882.307 L32.9077 886.604 L28.3562 886.604 L28.3562 882.307 L18.2347 882.307 L18.2347 876.419 Z" fill="#000000" fill-rule="evenodd" fill-opacity="1" /><path clip-path="url(#clip160)" d="M46.0847 840.452 Q46.0847 847.55 47.7079 850.287 Q49.3312 853.025 53.2461 853.025 Q56.3653 853.025 58.2114 850.988 Q60.0256 848.919 60.0256 845.386 Q60.0256 840.516 56.5881 837.588 Q53.1188 834.628 47.3897 834.628 L46.0847 834.628 L46.0847 840.452 M43.6657 828.771 L64.0042 828.771 L64.0042 834.628 L58.5933 834.628 Q61.8398 836.633 63.3994 839.625 Q64.9272 842.617 64.9272 846.945 Q64.9272 852.42 61.8716 855.666 Q58.7843 858.881 53.6281 858.881 Q47.6125 858.881 44.5569 854.871 Q41.5014 850.828 41.5014 842.84 L41.5014 834.628 L40.9285 834.628 Q36.8862 834.628 34.6901 837.301 Q32.4621 839.943 32.4621 844.749 Q32.4621 847.805 33.1941 850.701 Q33.9262 853.598 35.3903 856.271 L29.9795 856.271 Q28.7381 853.056 28.1334 850.033 Q27.4968 847.009 27.4968 844.144 Q27.4968 836.41 31.5072 832.591 Q35.5176 828.771 43.6657 828.771 Z" fill="#000000" fill-rule="evenodd" fill-opacity="1" /><path clip-path="url(#clip160)" d="M42.4881 787.076 L64.0042 787.076 L64.0042 792.932 L42.679 792.932 Q37.6183 792.932 35.1038 794.906 Q32.5894 796.879 32.5894 800.826 Q32.5894 805.568 35.6131 808.306 Q38.6368 811.043 43.8567 811.043 L64.0042 811.043 L64.0042 816.931 L28.3562 816.931 L28.3562 811.043 L33.8944 811.043 Q30.6797 808.942 29.0883 806.109 Q27.4968 803.245 27.4968 799.521 Q27.4968 793.378 31.3163 790.227 Q35.1038 787.076 42.4881 787.076 Z" fill="#000000" fill-rule="evenodd" fill-opacity="1" /><path clip-path="url(#clip160)" d="M29.7248 749.741 L35.1993 749.741 Q33.8307 752.224 33.1623 754.738 Q32.4621 757.221 32.4621 759.767 Q32.4621 765.464 36.0905 768.615 Q39.6872 771.766 46.212 771.766 Q52.7369 771.766 56.3653 768.615 Q59.9619 765.464 59.9619 759.767 Q59.9619 757.221 59.2935 754.738 Q58.5933 752.224 57.2247 749.741 L62.6355 749.741 Q63.7814 752.192 64.3543 754.834 Q64.9272 757.444 64.9272 760.404 Q64.9272 768.456 59.8664 773.199 Q54.8057 777.941 46.212 777.941 Q37.491 777.941 32.4939 773.167 Q27.4968 768.361 27.4968 760.022 Q27.4968 757.316 28.0697 754.738 Q28.6108 752.16 29.7248 749.741 Z" fill="#000000" fill-rule="evenodd" fill-opacity="1" /><path clip-path="url(#clip160)" d="M44.7161 709.064 L47.5806 709.064 L47.5806 735.991 Q53.6281 735.609 56.8109 732.363 Q59.9619 729.084 59.9619 723.26 Q59.9619 719.886 59.1344 716.735 Q58.3069 713.552 56.6518 710.433 L62.1899 710.433 Q63.5267 713.584 64.227 716.894 Q64.9272 720.204 64.9272 723.61 Q64.9272 732.14 59.9619 737.137 Q54.9967 742.102 46.5303 742.102 Q37.7774 742.102 32.6531 737.392 Q27.4968 732.649 27.4968 724.628 Q27.4968 717.435 32.1438 713.266 Q36.7589 709.064 44.7161 709.064 M42.9973 714.921 Q38.1912 714.984 35.3266 717.626 Q32.4621 720.236 32.4621 724.565 Q32.4621 729.466 35.2312 732.426 Q38.0002 735.355 43.0292 735.8 L42.9973 714.921 Z" fill="#000000" fill-rule="evenodd" fill-opacity="1" /><path clip-path="url(#clip160)" d="M55.9197 697.956 L55.9197 691.24 L61.3942 691.24 L71.5793 696.46 L71.5793 700.566 L61.3942 697.956 L55.9197 697.956 Z" fill="#000000" fill-rule="evenodd" fill-opacity="1" /><path clip-path="url(#clip160)" d="M14.479 658.234 L14.479 652.346 L43.7294 652.346 L28.3562 634.872 L28.3562 627.392 L45.0344 646.298 L64.0042 626.596 L64.0042 634.235 L46.5939 652.346 L64.0042 652.346 L64.0042 658.234 L14.479 658.234 Z" fill="#000000" fill-rule="evenodd" fill-opacity="1" /><path clip-path="url(#clip160)" d="M35.1993 592.508 Q31.2526 590.312 29.3747 587.256 Q27.4968 584.201 27.4968 580.063 Q27.4968 574.493 31.4117 571.469 Q35.2948 568.446 42.4881 568.446 L64.0042 568.446 L64.0042 574.334 L42.679 574.334 Q37.5546 574.334 35.072 576.148 Q32.5894 577.962 32.5894 581.686 Q32.5894 586.238 35.6131 588.88 Q38.6368 591.521 43.8567 591.521 L64.0042 591.521 L64.0042 597.41 L42.679 597.41 Q37.5228 597.41 35.072 599.224 Q32.5894 601.038 32.5894 604.826 Q32.5894 609.314 35.6449 611.955 Q38.6686 614.597 43.8567 614.597 L64.0042 614.597 L64.0042 620.485 L28.3562 620.485 L28.3562 614.597 L33.8944 614.597 Q30.616 612.592 29.0564 609.791 Q27.4968 606.99 27.4968 603.139 Q27.4968 599.256 29.4702 596.55 Q31.4436 593.813 35.1993 592.508 Z" fill="#000000" fill-rule="evenodd" fill-opacity="1" /><path clip-path="url(#clip160)" d="M905.121 12.096 L956.284 12.096 L956.284 18.9825 L934.814 18.9825 L934.814 72.576 L926.591 72.576 L926.591 18.9825 L905.121 18.9825 L905.121 12.096 Z" fill="#000000" fill-rule="evenodd" fill-opacity="1" /><path clip-path="url(#clip160)" d="M961.307 27.2059 L968.761 27.2059 L968.761 72.576 L961.307 72.576 L961.307 27.2059 M961.307 9.54393 L968.761 9.54393 L968.761 18.9825 L961.307 18.9825 L961.307 9.54393 Z" fill="#000000" fill-rule="evenodd" fill-opacity="1" /><path clip-path="url(#clip160)" d="M1019.68 35.9153 Q1022.48 30.8922 1026.36 28.5022 Q1030.25 26.1121 1035.52 26.1121 Q1042.61 26.1121 1046.46 31.0947 Q1050.31 36.0368 1050.31 45.1919 L1050.31 72.576 L1042.81 72.576 L1042.81 45.4349 Q1042.81 38.913 1040.5 35.7533 Q1038.19 32.5936 1033.45 32.5936 Q1027.66 32.5936 1024.3 36.4419 Q1020.94 40.2903 1020.94 46.9338 L1020.94 72.576 L1013.44 72.576 L1013.44 45.4349 Q1013.44 38.8725 1011.13 35.7533 Q1008.82 32.5936 1004 32.5936 Q998.292 32.5936 994.93 36.4824 Q991.567 40.3308 991.567 46.9338 L991.567 72.576 L984.073 72.576 L984.073 27.2059 L991.567 27.2059 L991.567 34.2544 Q994.119 30.082 997.684 28.0971 Q1001.25 26.1121 1006.15 26.1121 Q1011.09 26.1121 1014.54 28.6237 Q1018.02 31.1352 1019.68 35.9153 Z" fill="#000000" fill-rule="evenodd" fill-opacity="1" /><path clip-path="url(#clip160)" d="M1103.98 48.0275 L1103.98 51.6733 L1069.71 51.6733 Q1070.2 59.3701 1074.33 63.421 Q1078.5 67.4314 1085.91 67.4314 Q1090.21 67.4314 1094.22 66.3781 Q1098.27 65.3249 1102.24 63.2184 L1102.24 70.267 Q1098.23 71.9684 1094.01 72.8596 Q1089.8 73.7508 1085.47 73.7508 Q1074.61 73.7508 1068.25 67.4314 Q1061.93 61.1119 1061.93 50.3365 Q1061.93 39.1965 1067.93 32.6746 Q1073.96 26.1121 1084.17 26.1121 Q1093.33 26.1121 1098.63 32.0264 Q1103.98 37.9003 1103.98 48.0275 M1096.53 45.84 Q1096.45 39.7232 1093.08 36.0774 Q1089.76 32.4315 1084.25 32.4315 Q1078.01 32.4315 1074.25 35.9558 Q1070.52 39.4801 1069.95 45.8805 L1096.53 45.84 Z" fill="#000000" fill-rule="evenodd" fill-opacity="1" /><path clip-path="url(#clip160)" d="M1179.16 14.0809 L1179.16 22.0612 Q1174.51 19.8332 1170.37 18.7395 Q1166.24 17.6457 1162.39 17.6457 Q1155.71 17.6457 1152.06 20.2383 Q1148.46 22.8309 1148.46 27.611 Q1148.46 31.6214 1150.85 33.6873 Q1153.28 35.7128 1160 36.9686 L1164.95 37.9813 Q1174.1 39.7232 1178.44 44.1387 Q1182.81 48.5136 1182.81 55.8863 Q1182.81 64.6767 1176.9 69.2137 Q1171.02 73.7508 1159.64 73.7508 Q1155.35 73.7508 1150.48 72.7785 Q1145.66 71.8063 1140.48 69.9024 L1140.48 61.4765 Q1145.46 64.2716 1150.24 65.6895 Q1155.02 67.1073 1159.64 67.1073 Q1166.65 67.1073 1170.46 64.3527 Q1174.26 61.598 1174.26 56.4939 Q1174.26 52.0379 1171.51 49.5264 Q1168.79 47.0148 1162.56 45.759 L1157.57 44.7868 Q1148.42 42.9639 1144.33 39.075 Q1140.24 35.1862 1140.24 28.2591 Q1140.24 20.2383 1145.87 15.6203 Q1151.54 11.0023 1161.46 11.0023 Q1165.72 11.0023 1170.13 11.7719 Q1174.55 12.5416 1179.16 14.0809 Z" fill="#000000" fill-rule="evenodd" fill-opacity="1" /><path clip-path="url(#clip160)" d="M1202.62 14.324 L1202.62 27.2059 L1217.97 27.2059 L1217.97 32.9987 L1202.62 32.9987 L1202.62 57.6282 Q1202.62 63.1779 1204.12 64.7578 Q1205.66 66.3376 1210.32 66.3376 L1217.97 66.3376 L1217.97 72.576 L1210.32 72.576 Q1201.69 72.576 1198.41 69.3758 Q1195.13 66.1351 1195.13 57.6282 L1195.13 32.9987 L1189.66 32.9987 L1189.66 27.2059 L1195.13 27.2059 L1195.13 14.324 L1202.62 14.324 Z" fill="#000000" fill-rule="evenodd" fill-opacity="1" /><path clip-path="url(#clip160)" d="M1266.58 48.0275 L1266.58 51.6733 L1232.31 51.6733 Q1232.8 59.3701 1236.93 63.421 Q1241.1 67.4314 1248.52 67.4314 Q1252.81 67.4314 1256.82 66.3781 Q1260.87 65.3249 1264.84 63.2184 L1264.84 70.267 Q1260.83 71.9684 1256.62 72.8596 Q1252.41 73.7508 1248.07 73.7508 Q1237.21 73.7508 1230.85 67.4314 Q1224.53 61.1119 1224.53 50.3365 Q1224.53 39.1965 1230.53 32.6746 Q1236.57 26.1121 1246.77 26.1121 Q1255.93 26.1121 1261.24 32.0264 Q1266.58 37.9003 1266.58 48.0275 M1259.13 45.84 Q1259.05 39.7232 1255.69 36.0774 Q1252.36 32.4315 1246.86 32.4315 Q1240.62 32.4315 1236.85 35.9558 Q1233.12 39.4801 1232.56 45.8805 L1259.13 45.84 Z" fill="#000000" fill-rule="evenodd" fill-opacity="1" /><path clip-path="url(#clip160)" d="M1286.03 65.7705 L1286.03 89.8329 L1278.53 89.8329 L1278.53 27.2059 L1286.03 27.2059 L1286.03 34.0924 Q1288.38 30.0415 1291.94 28.0971 Q1295.55 26.1121 1300.53 26.1121 Q1308.79 26.1121 1313.94 32.6746 Q1319.12 39.2371 1319.12 49.9314 Q1319.12 60.6258 1313.94 67.1883 Q1308.79 73.7508 1300.53 73.7508 Q1295.55 73.7508 1291.94 71.8063 Q1288.38 69.8214 1286.03 65.7705 M1311.39 49.9314 Q1311.39 41.7081 1307.98 37.0496 Q1304.62 32.3505 1298.71 32.3505 Q1292.79 32.3505 1289.39 37.0496 Q1286.03 41.7081 1286.03 49.9314 Q1286.03 58.1548 1289.39 62.8538 Q1292.79 67.5124 1298.71 67.5124 Q1304.62 67.5124 1307.98 62.8538 Q1311.39 58.1548 1311.39 49.9314 Z" fill="#000000" fill-rule="evenodd" fill-opacity="1" /><path clip-path="url(#clip160)" d="M1387.71 34.0924 L1387.71 9.54393 L1395.16 9.54393 L1395.16 72.576 L1387.71 72.576 L1387.71 65.7705 Q1385.36 69.8214 1381.75 71.8063 Q1378.19 73.7508 1373.16 73.7508 Q1364.94 73.7508 1359.75 67.1883 Q1354.61 60.6258 1354.61 49.9314 Q1354.61 39.2371 1359.75 32.6746 Q1364.94 26.1121 1373.16 26.1121 Q1378.19 26.1121 1381.75 28.0971 Q1385.36 30.0415 1387.71 34.0924 M1362.31 49.9314 Q1362.31 58.1548 1365.67 62.8538 Q1369.07 67.5124 1374.99 67.5124 Q1380.9 67.5124 1384.3 62.8538 Q1387.71 58.1548 1387.71 49.9314 Q1387.71 41.7081 1384.3 37.0496 Q1380.9 32.3505 1374.99 32.3505 Q1369.07 32.3505 1365.67 37.0496 Q1362.31 41.7081 1362.31 49.9314 Z" fill="#000000" fill-rule="evenodd" fill-opacity="1" /><path clip-path="url(#clip160)" d="M1417.88 14.324 L1417.88 27.2059 L1433.24 27.2059 L1433.24 32.9987 L1417.88 32.9987 L1417.88 57.6282 Q1417.88 63.1779 1419.38 64.7578 Q1420.92 66.3376 1425.58 66.3376 L1433.24 66.3376 L1433.24 72.576 L1425.58 72.576 Q1416.95 72.576 1413.67 69.3758 Q1410.39 66.1351 1410.39 57.6282 L1410.39 32.9987 L1404.92 32.9987 L1404.92 27.2059 L1410.39 27.2059 L1410.39 14.324 L1417.88 14.324 Z" fill="#000000" fill-rule="evenodd" fill-opacity="1" /><path clip-path="url(#clip160)" d="M1470.38 34.9026 L1522.32 34.9026 L1522.32 41.7081 L1470.38 41.7081 L1470.38 34.9026 M1470.38 51.4303 L1522.32 51.4303 L1522.32 58.3168 L1470.38 58.3168 L1470.38 51.4303 Z" fill="#000000" fill-rule="evenodd" fill-opacity="1" /><path clip-path="url(#clip160)" d="M1583.85 17.4837 Q1577.53 17.4837 1574.33 23.7221 Q1571.17 29.92 1571.17 42.3968 Q1571.17 54.833 1574.33 61.0714 Q1577.53 67.2693 1583.85 67.2693 Q1590.21 67.2693 1593.37 61.0714 Q1596.57 54.833 1596.57 42.3968 Q1596.57 29.92 1593.37 23.7221 Q1590.21 17.4837 1583.85 17.4837 M1583.85 11.0023 Q1594.02 11.0023 1599.36 19.0636 Q1604.75 27.0843 1604.75 42.3968 Q1604.75 57.6687 1599.36 65.73 Q1594.02 73.7508 1583.85 73.7508 Q1573.68 73.7508 1568.29 65.73 Q1562.95 57.6687 1562.95 42.3968 Q1562.95 27.0843 1568.29 19.0636 Q1573.68 11.0023 1583.85 11.0023 Z" fill="#000000" fill-rule="evenodd" fill-opacity="1" /><path clip-path="url(#clip160)" d="M1619.13 62.2867 L1627.68 62.2867 L1627.68 72.576 L1619.13 72.576 L1619.13 62.2867 Z" fill="#000000" fill-rule="evenodd" fill-opacity="1" /><path clip-path="url(#clip160)" d="M1646.92 65.6895 L1660.29 65.6895 L1660.29 19.5497 L1645.75 22.4663 L1645.75 15.0127 L1660.21 12.096 L1668.39 12.096 L1668.39 65.6895 L1681.76 65.6895 L1681.76 72.576 L1646.92 72.576 L1646.92 65.6895 Z" fill="#000000" fill-rule="evenodd" fill-opacity="1" /><circle clip-path="url(#clip162)" cx="294.087" cy="1321.86" r="18" fill="#009af9" fill-rule="evenodd" fill-opacity="1" stroke="#000000" stroke-opacity="1" stroke-width="3.2"/>
<circle clip-path="url(#clip162)" cx="306.657" cy="1257.33" r="18" fill="#009af9" fill-rule="evenodd" fill-opacity="1" stroke="#000000" stroke-opacity="1" stroke-width="3.2"/>
<circle clip-path="url(#clip162)" cx="319.228" cy="1192.79" r="18" fill="#009af9" fill-rule="evenodd" fill-opacity="1" stroke="#000000" stroke-opacity="1" stroke-width="3.2"/>
<circle clip-path="url(#clip162)" cx="331.798" cy="1128.26" r="18" fill="#009af9" fill-rule="evenodd" fill-opacity="1" stroke="#000000" stroke-opacity="1" stroke-width="3.2"/>
<circle clip-path="url(#clip162)" cx="344.369" cy="1063.73" r="18" fill="#009af9" fill-rule="evenodd" fill-opacity="1" stroke="#000000" stroke-opacity="1" stroke-width="3.2"/>
<circle clip-path="url(#clip162)" cx="356.939" cy="999.194" r="18" fill="#009af9" fill-rule="evenodd" fill-opacity="1" stroke="#000000" stroke-opacity="1" stroke-width="3.2"/>
<circle clip-path="url(#clip162)" cx="369.51" cy="934.66" r="18" fill="#009af9" fill-rule="evenodd" fill-opacity="1" stroke="#000000" stroke-opacity="1" stroke-width="3.2"/>
<circle clip-path="url(#clip162)" cx="382.08" cy="870.126" r="18" fill="#009af9" fill-rule="evenodd" fill-opacity="1" stroke="#000000" stroke-opacity="1" stroke-width="3.2"/>
<circle clip-path="url(#clip162)" cx="394.651" cy="805.593" r="18" fill="#009af9" fill-rule="evenodd" fill-opacity="1" stroke="#000000" stroke-opacity="1" stroke-width="3.2"/>
<circle clip-path="url(#clip162)" cx="407.221" cy="741.059" r="18" fill="#009af9" fill-rule="evenodd" fill-opacity="1" stroke="#000000" stroke-opacity="1" stroke-width="3.2"/>
<circle clip-path="url(#clip162)" cx="419.792" cy="676.526" r="18" fill="#009af9" fill-rule="evenodd" fill-opacity="1" stroke="#000000" stroke-opacity="1" stroke-width="3.2"/>
<circle clip-path="url(#clip162)" cx="432.362" cy="611.992" r="18" fill="#009af9" fill-rule="evenodd" fill-opacity="1" stroke="#000000" stroke-opacity="1" stroke-width="3.2"/>
<circle clip-path="url(#clip162)" cx="444.933" cy="547.458" r="18" fill="#009af9" fill-rule="evenodd" fill-opacity="1" stroke="#000000" stroke-opacity="1" stroke-width="3.2"/>
<circle clip-path="url(#clip162)" cx="457.503" cy="482.925" r="18" fill="#009af9" fill-rule="evenodd" fill-opacity="1" stroke="#000000" stroke-opacity="1" stroke-width="3.2"/>
<circle clip-path="url(#clip162)" cx="470.074" cy="418.391" r="18" fill="#009af9" fill-rule="evenodd" fill-opacity="1" stroke="#000000" stroke-opacity="1" stroke-width="3.2"/>
<circle clip-path="url(#clip162)" cx="482.644" cy="353.857" r="18" fill="#009af9" fill-rule="evenodd" fill-opacity="1" stroke="#000000" stroke-opacity="1" stroke-width="3.2"/>
<circle clip-path="url(#clip162)" cx="495.215" cy="289.324" r="18" fill="#009af9" fill-rule="evenodd" fill-opacity="1" stroke="#000000" stroke-opacity="1" stroke-width="3.2"/>
<circle clip-path="url(#clip162)" cx="507.785" cy="224.79" r="18" fill="#009af9" fill-rule="evenodd" fill-opacity="1" stroke="#000000" stroke-opacity="1" stroke-width="3.2"/>
<circle clip-path="url(#clip162)" cx="520.356" cy="160.256" r="18" fill="#009af9" fill-rule="evenodd" fill-opacity="1" stroke="#000000" stroke-opacity="1" stroke-width="3.2"/>
<circle clip-path="url(#clip162)" cx="532.926" cy="224.79" r="18" fill="#009af9" fill-rule="evenodd" fill-opacity="1" stroke="#000000" stroke-opacity="1" stroke-width="3.2"/>
<circle clip-path="url(#clip162)" cx="545.496" cy="289.324" r="18" fill="#009af9" fill-rule="evenodd" fill-opacity="1" stroke="#000000" stroke-opacity="1" stroke-width="3.2"/>
<circle clip-path="url(#clip162)" cx="558.067" cy="353.857" r="18" fill="#009af9" fill-rule="evenodd" fill-opacity="1" stroke="#000000" stroke-opacity="1" stroke-width="3.2"/>
<circle clip-path="url(#clip162)" cx="570.637" cy="418.391" r="18" fill="#009af9" fill-rule="evenodd" fill-opacity="1" stroke="#000000" stroke-opacity="1" stroke-width="3.2"/>
<circle clip-path="url(#clip162)" cx="583.208" cy="482.925" r="18" fill="#009af9" fill-rule="evenodd" fill-opacity="1" stroke="#000000" stroke-opacity="1" stroke-width="3.2"/>
<circle clip-path="url(#clip162)" cx="595.778" cy="547.458" r="18" fill="#009af9" fill-rule="evenodd" fill-opacity="1" stroke="#000000" stroke-opacity="1" stroke-width="3.2"/>
<circle clip-path="url(#clip162)" cx="608.349" cy="611.992" r="18" fill="#009af9" fill-rule="evenodd" fill-opacity="1" stroke="#000000" stroke-opacity="1" stroke-width="3.2"/>
<circle clip-path="url(#clip162)" cx="620.919" cy="676.526" r="18" fill="#009af9" fill-rule="evenodd" fill-opacity="1" stroke="#000000" stroke-opacity="1" stroke-width="3.2"/>
<circle clip-path="url(#clip162)" cx="633.49" cy="741.059" r="18" fill="#009af9" fill-rule="evenodd" fill-opacity="1" stroke="#000000" stroke-opacity="1" stroke-width="3.2"/>
<circle clip-path="url(#clip162)" cx="646.06" cy="805.593" r="18" fill="#009af9" fill-rule="evenodd" fill-opacity="1" stroke="#000000" stroke-opacity="1" stroke-width="3.2"/>
<circle clip-path="url(#clip162)" cx="658.631" cy="870.126" r="18" fill="#009af9" fill-rule="evenodd" fill-opacity="1" stroke="#000000" stroke-opacity="1" stroke-width="3.2"/>
<circle clip-path="url(#clip162)" cx="671.201" cy="934.66" r="18" fill="#009af9" fill-rule="evenodd" fill-opacity="1" stroke="#000000" stroke-opacity="1" stroke-width="3.2"/>
<circle clip-path="url(#clip162)" cx="683.772" cy="999.194" r="18" fill="#009af9" fill-rule="evenodd" fill-opacity="1" stroke="#000000" stroke-opacity="1" stroke-width="3.2"/>
<circle clip-path="url(#clip162)" cx="696.342" cy="1063.73" r="18" fill="#009af9" fill-rule="evenodd" fill-opacity="1" stroke="#000000" stroke-opacity="1" stroke-width="3.2"/>
<circle clip-path="url(#clip162)" cx="708.913" cy="1128.26" r="18" fill="#009af9" fill-rule="evenodd" fill-opacity="1" stroke="#000000" stroke-opacity="1" stroke-width="3.2"/>
<circle clip-path="url(#clip162)" cx="721.483" cy="1192.79" r="18" fill="#009af9" fill-rule="evenodd" fill-opacity="1" stroke="#000000" stroke-opacity="1" stroke-width="3.2"/>
<circle clip-path="url(#clip162)" cx="734.054" cy="1257.33" r="18" fill="#009af9" fill-rule="evenodd" fill-opacity="1" stroke="#000000" stroke-opacity="1" stroke-width="3.2"/>
<circle clip-path="url(#clip162)" cx="746.624" cy="1321.86" r="18" fill="#009af9" fill-rule="evenodd" fill-opacity="1" stroke="#000000" stroke-opacity="1" stroke-width="3.2"/>
<circle clip-path="url(#clip162)" cx="759.195" cy="1386.4" r="18" fill="#009af9" fill-rule="evenodd" fill-opacity="1" stroke="#000000" stroke-opacity="1" stroke-width="3.2"/>
<circle clip-path="url(#clip162)" cx="771.765" cy="1321.86" r="18" fill="#009af9" fill-rule="evenodd" fill-opacity="1" stroke="#000000" stroke-opacity="1" stroke-width="3.2"/>
<circle clip-path="url(#clip162)" cx="784.336" cy="1257.33" r="18" fill="#009af9" fill-rule="evenodd" fill-opacity="1" stroke="#000000" stroke-opacity="1" stroke-width="3.2"/>
<circle clip-path="url(#clip162)" cx="796.906" cy="1192.79" r="18" fill="#009af9" fill-rule="evenodd" fill-opacity="1" stroke="#000000" stroke-opacity="1" stroke-width="3.2"/>
<circle clip-path="url(#clip162)" cx="809.477" cy="1128.26" r="18" fill="#009af9" fill-rule="evenodd" fill-opacity="1" stroke="#000000" stroke-opacity="1" stroke-width="3.2"/>
<circle clip-path="url(#clip162)" cx="822.047" cy="1063.73" r="18" fill="#009af9" fill-rule="evenodd" fill-opacity="1" stroke="#000000" stroke-opacity="1" stroke-width="3.2"/>
<circle clip-path="url(#clip162)" cx="834.618" cy="999.194" r="18" fill="#009af9" fill-rule="evenodd" fill-opacity="1" stroke="#000000" stroke-opacity="1" stroke-width="3.2"/>
<circle clip-path="url(#clip162)" cx="847.188" cy="934.66" r="18" fill="#009af9" fill-rule="evenodd" fill-opacity="1" stroke="#000000" stroke-opacity="1" stroke-width="3.2"/>
<circle clip-path="url(#clip162)" cx="859.759" cy="870.126" r="18" fill="#009af9" fill-rule="evenodd" fill-opacity="1" stroke="#000000" stroke-opacity="1" stroke-width="3.2"/>
<circle clip-path="url(#clip162)" cx="872.329" cy="805.593" r="18" fill="#009af9" fill-rule="evenodd" fill-opacity="1" stroke="#000000" stroke-opacity="1" stroke-width="3.2"/>
<circle clip-path="url(#clip162)" cx="884.9" cy="741.059" r="18" fill="#009af9" fill-rule="evenodd" fill-opacity="1" stroke="#000000" stroke-opacity="1" stroke-width="3.2"/>
<circle clip-path="url(#clip162)" cx="897.47" cy="676.526" r="18" fill="#009af9" fill-rule="evenodd" fill-opacity="1" stroke="#000000" stroke-opacity="1" stroke-width="3.2"/>
<circle clip-path="url(#clip162)" cx="910.041" cy="611.992" r="18" fill="#009af9" fill-rule="evenodd" fill-opacity="1" stroke="#000000" stroke-opacity="1" stroke-width="3.2"/>
<circle clip-path="url(#clip162)" cx="922.611" cy="547.458" r="18" fill="#009af9" fill-rule="evenodd" fill-opacity="1" stroke="#000000" stroke-opacity="1" stroke-width="3.2"/>
<circle clip-path="url(#clip162)" cx="935.182" cy="482.925" r="18" fill="#009af9" fill-rule="evenodd" fill-opacity="1" stroke="#000000" stroke-opacity="1" stroke-width="3.2"/>
<circle clip-path="url(#clip162)" cx="947.752" cy="418.391" r="18" fill="#009af9" fill-rule="evenodd" fill-opacity="1" stroke="#000000" stroke-opacity="1" stroke-width="3.2"/>
<circle clip-path="url(#clip162)" cx="960.323" cy="353.857" r="18" fill="#009af9" fill-rule="evenodd" fill-opacity="1" stroke="#000000" stroke-opacity="1" stroke-width="3.2"/>
<circle clip-path="url(#clip162)" cx="972.893" cy="289.324" r="18" fill="#009af9" fill-rule="evenodd" fill-opacity="1" stroke="#000000" stroke-opacity="1" stroke-width="3.2"/>
<circle clip-path="url(#clip162)" cx="985.464" cy="224.79" r="18" fill="#009af9" fill-rule="evenodd" fill-opacity="1" stroke="#000000" stroke-opacity="1" stroke-width="3.2"/>
<circle clip-path="url(#clip162)" cx="998.034" cy="160.256" r="18" fill="#009af9" fill-rule="evenodd" fill-opacity="1" stroke="#000000" stroke-opacity="1" stroke-width="3.2"/>
<circle clip-path="url(#clip162)" cx="1010.6" cy="224.79" r="18" fill="#009af9" fill-rule="evenodd" fill-opacity="1" stroke="#000000" stroke-opacity="1" stroke-width="3.2"/>
<circle clip-path="url(#clip162)" cx="1023.18" cy="289.324" r="18" fill="#009af9" fill-rule="evenodd" fill-opacity="1" stroke="#000000" stroke-opacity="1" stroke-width="3.2"/>
<circle clip-path="url(#clip162)" cx="1035.75" cy="353.857" r="18" fill="#009af9" fill-rule="evenodd" fill-opacity="1" stroke="#000000" stroke-opacity="1" stroke-width="3.2"/>
<circle clip-path="url(#clip162)" cx="1048.32" cy="418.391" r="18" fill="#009af9" fill-rule="evenodd" fill-opacity="1" stroke="#000000" stroke-opacity="1" stroke-width="3.2"/>
<circle clip-path="url(#clip162)" cx="1060.89" cy="482.925" r="18" fill="#009af9" fill-rule="evenodd" fill-opacity="1" stroke="#000000" stroke-opacity="1" stroke-width="3.2"/>
<circle clip-path="url(#clip162)" cx="1073.46" cy="547.458" r="18" fill="#009af9" fill-rule="evenodd" fill-opacity="1" stroke="#000000" stroke-opacity="1" stroke-width="3.2"/>
<circle clip-path="url(#clip162)" cx="1086.03" cy="611.992" r="18" fill="#009af9" fill-rule="evenodd" fill-opacity="1" stroke="#000000" stroke-opacity="1" stroke-width="3.2"/>
<circle clip-path="url(#clip162)" cx="1098.6" cy="676.526" r="18" fill="#009af9" fill-rule="evenodd" fill-opacity="1" stroke="#000000" stroke-opacity="1" stroke-width="3.2"/>
<circle clip-path="url(#clip162)" cx="1111.17" cy="741.059" r="18" fill="#009af9" fill-rule="evenodd" fill-opacity="1" stroke="#000000" stroke-opacity="1" stroke-width="3.2"/>
<circle clip-path="url(#clip162)" cx="1123.74" cy="805.593" r="18" fill="#009af9" fill-rule="evenodd" fill-opacity="1" stroke="#000000" stroke-opacity="1" stroke-width="3.2"/>
<circle clip-path="url(#clip162)" cx="1136.31" cy="870.126" r="18" fill="#009af9" fill-rule="evenodd" fill-opacity="1" stroke="#000000" stroke-opacity="1" stroke-width="3.2"/>
<circle clip-path="url(#clip162)" cx="1148.88" cy="934.66" r="18" fill="#009af9" fill-rule="evenodd" fill-opacity="1" stroke="#000000" stroke-opacity="1" stroke-width="3.2"/>
<circle clip-path="url(#clip162)" cx="1161.45" cy="999.194" r="18" fill="#009af9" fill-rule="evenodd" fill-opacity="1" stroke="#000000" stroke-opacity="1" stroke-width="3.2"/>
<circle clip-path="url(#clip162)" cx="1174.02" cy="1063.73" r="18" fill="#009af9" fill-rule="evenodd" fill-opacity="1" stroke="#000000" stroke-opacity="1" stroke-width="3.2"/>
<circle clip-path="url(#clip162)" cx="1186.59" cy="1128.26" r="18" fill="#009af9" fill-rule="evenodd" fill-opacity="1" stroke="#000000" stroke-opacity="1" stroke-width="3.2"/>
<circle clip-path="url(#clip162)" cx="1199.16" cy="1192.79" r="18" fill="#009af9" fill-rule="evenodd" fill-opacity="1" stroke="#000000" stroke-opacity="1" stroke-width="3.2"/>
<circle clip-path="url(#clip162)" cx="1211.73" cy="1257.33" r="18" fill="#009af9" fill-rule="evenodd" fill-opacity="1" stroke="#000000" stroke-opacity="1" stroke-width="3.2"/>
<circle clip-path="url(#clip162)" cx="1224.3" cy="1321.86" r="18" fill="#009af9" fill-rule="evenodd" fill-opacity="1" stroke="#000000" stroke-opacity="1" stroke-width="3.2"/>
<circle clip-path="url(#clip162)" cx="1236.87" cy="1386.4" r="18" fill="#009af9" fill-rule="evenodd" fill-opacity="1" stroke="#000000" stroke-opacity="1" stroke-width="3.2"/>
<circle clip-path="url(#clip162)" cx="1249.44" cy="1321.86" r="18" fill="#009af9" fill-rule="evenodd" fill-opacity="1" stroke="#000000" stroke-opacity="1" stroke-width="3.2"/>
<circle clip-path="url(#clip162)" cx="1262.01" cy="1257.33" r="18" fill="#009af9" fill-rule="evenodd" fill-opacity="1" stroke="#000000" stroke-opacity="1" stroke-width="3.2"/>
<circle clip-path="url(#clip162)" cx="1274.58" cy="1192.79" r="18" fill="#009af9" fill-rule="evenodd" fill-opacity="1" stroke="#000000" stroke-opacity="1" stroke-width="3.2"/>
<circle clip-path="url(#clip162)" cx="1287.16" cy="1128.26" r="18" fill="#009af9" fill-rule="evenodd" fill-opacity="1" stroke="#000000" stroke-opacity="1" stroke-width="3.2"/>
<circle clip-path="url(#clip162)" cx="1299.73" cy="1063.73" r="18" fill="#009af9" fill-rule="evenodd" fill-opacity="1" stroke="#000000" stroke-opacity="1" stroke-width="3.2"/>
<circle clip-path="url(#clip162)" cx="1312.3" cy="999.194" r="18" fill="#009af9" fill-rule="evenodd" fill-opacity="1" stroke="#000000" stroke-opacity="1" stroke-width="3.2"/>
<circle clip-path="url(#clip162)" cx="1324.87" cy="934.66" r="18" fill="#009af9" fill-rule="evenodd" fill-opacity="1" stroke="#000000" stroke-opacity="1" stroke-width="3.2"/>
<circle clip-path="url(#clip162)" cx="1337.44" cy="870.126" r="18" fill="#009af9" fill-rule="evenodd" fill-opacity="1" stroke="#000000" stroke-opacity="1" stroke-width="3.2"/>
<circle clip-path="url(#clip162)" cx="1350.01" cy="805.593" r="18" fill="#009af9" fill-rule="evenodd" fill-opacity="1" stroke="#000000" stroke-opacity="1" stroke-width="3.2"/>
<circle clip-path="url(#clip162)" cx="1362.58" cy="741.059" r="18" fill="#009af9" fill-rule="evenodd" fill-opacity="1" stroke="#000000" stroke-opacity="1" stroke-width="3.2"/>
<circle clip-path="url(#clip162)" cx="1375.15" cy="676.526" r="18" fill="#009af9" fill-rule="evenodd" fill-opacity="1" stroke="#000000" stroke-opacity="1" stroke-width="3.2"/>
<circle clip-path="url(#clip162)" cx="1387.72" cy="611.992" r="18" fill="#009af9" fill-rule="evenodd" fill-opacity="1" stroke="#000000" stroke-opacity="1" stroke-width="3.2"/>
<circle clip-path="url(#clip162)" cx="1400.29" cy="547.458" r="18" fill="#009af9" fill-rule="evenodd" fill-opacity="1" stroke="#000000" stroke-opacity="1" stroke-width="3.2"/>
<circle clip-path="url(#clip162)" cx="1412.86" cy="482.925" r="18" fill="#009af9" fill-rule="evenodd" fill-opacity="1" stroke="#000000" stroke-opacity="1" stroke-width="3.2"/>
<circle clip-path="url(#clip162)" cx="1425.43" cy="418.391" r="18" fill="#009af9" fill-rule="evenodd" fill-opacity="1" stroke="#000000" stroke-opacity="1" stroke-width="3.2"/>
<circle clip-path="url(#clip162)" cx="1438" cy="353.857" r="18" fill="#009af9" fill-rule="evenodd" fill-opacity="1" stroke="#000000" stroke-opacity="1" stroke-width="3.2"/>
<circle clip-path="url(#clip162)" cx="1450.57" cy="289.324" r="18" fill="#009af9" fill-rule="evenodd" fill-opacity="1" stroke="#000000" stroke-opacity="1" stroke-width="3.2"/>
<circle clip-path="url(#clip162)" cx="1463.14" cy="224.79" r="18" fill="#009af9" fill-rule="evenodd" fill-opacity="1" stroke="#000000" stroke-opacity="1" stroke-width="3.2"/>
<circle clip-path="url(#clip162)" cx="1475.71" cy="160.256" r="18" fill="#009af9" fill-rule="evenodd" fill-opacity="1" stroke="#000000" stroke-opacity="1" stroke-width="3.2"/>
<circle clip-path="url(#clip162)" cx="1488.28" cy="224.79" r="18" fill="#009af9" fill-rule="evenodd" fill-opacity="1" stroke="#000000" stroke-opacity="1" stroke-width="3.2"/>
<circle clip-path="url(#clip162)" cx="1500.85" cy="289.324" r="18" fill="#009af9" fill-rule="evenodd" fill-opacity="1" stroke="#000000" stroke-opacity="1" stroke-width="3.2"/>
<circle clip-path="url(#clip162)" cx="1513.42" cy="353.857" r="18" fill="#009af9" fill-rule="evenodd" fill-opacity="1" stroke="#000000" stroke-opacity="1" stroke-width="3.2"/>
<circle clip-path="url(#clip162)" cx="1525.99" cy="418.391" r="18" fill="#009af9" fill-rule="evenodd" fill-opacity="1" stroke="#000000" stroke-opacity="1" stroke-width="3.2"/>
<circle clip-path="url(#clip162)" cx="1538.57" cy="482.925" r="18" fill="#009af9" fill-rule="evenodd" fill-opacity="1" stroke="#000000" stroke-opacity="1" stroke-width="3.2"/>
<circle clip-path="url(#clip162)" cx="1551.14" cy="547.458" r="18" fill="#009af9" fill-rule="evenodd" fill-opacity="1" stroke="#000000" stroke-opacity="1" stroke-width="3.2"/>
<circle clip-path="url(#clip162)" cx="1563.71" cy="611.992" r="18" fill="#009af9" fill-rule="evenodd" fill-opacity="1" stroke="#000000" stroke-opacity="1" stroke-width="3.2"/>
<circle clip-path="url(#clip162)" cx="1576.28" cy="676.526" r="18" fill="#009af9" fill-rule="evenodd" fill-opacity="1" stroke="#000000" stroke-opacity="1" stroke-width="3.2"/>
<circle clip-path="url(#clip162)" cx="1588.85" cy="741.059" r="18" fill="#009af9" fill-rule="evenodd" fill-opacity="1" stroke="#000000" stroke-opacity="1" stroke-width="3.2"/>
<circle clip-path="url(#clip162)" cx="1601.42" cy="805.593" r="18" fill="#009af9" fill-rule="evenodd" fill-opacity="1" stroke="#000000" stroke-opacity="1" stroke-width="3.2"/>
<circle clip-path="url(#clip162)" cx="1613.99" cy="870.126" r="18" fill="#009af9" fill-rule="evenodd" fill-opacity="1" stroke="#000000" stroke-opacity="1" stroke-width="3.2"/>
<circle clip-path="url(#clip162)" cx="1626.56" cy="934.66" r="18" fill="#009af9" fill-rule="evenodd" fill-opacity="1" stroke="#000000" stroke-opacity="1" stroke-width="3.2"/>
<circle clip-path="url(#clip162)" cx="1639.13" cy="999.194" r="18" fill="#009af9" fill-rule="evenodd" fill-opacity="1" stroke="#000000" stroke-opacity="1" stroke-width="3.2"/>
<circle clip-path="url(#clip162)" cx="1651.7" cy="1063.73" r="18" fill="#009af9" fill-rule="evenodd" fill-opacity="1" stroke="#000000" stroke-opacity="1" stroke-width="3.2"/>
<circle clip-path="url(#clip162)" cx="1664.27" cy="1128.26" r="18" fill="#009af9" fill-rule="evenodd" fill-opacity="1" stroke="#000000" stroke-opacity="1" stroke-width="3.2"/>
<circle clip-path="url(#clip162)" cx="1676.84" cy="1192.79" r="18" fill="#009af9" fill-rule="evenodd" fill-opacity="1" stroke="#000000" stroke-opacity="1" stroke-width="3.2"/>
<circle clip-path="url(#clip162)" cx="1689.41" cy="1257.33" r="18" fill="#009af9" fill-rule="evenodd" fill-opacity="1" stroke="#000000" stroke-opacity="1" stroke-width="3.2"/>
<circle clip-path="url(#clip162)" cx="1701.98" cy="1321.86" r="18" fill="#009af9" fill-rule="evenodd" fill-opacity="1" stroke="#000000" stroke-opacity="1" stroke-width="3.2"/>
<circle clip-path="url(#clip162)" cx="1714.55" cy="1386.4" r="18" fill="#009af9" fill-rule="evenodd" fill-opacity="1" stroke="#000000" stroke-opacity="1" stroke-width="3.2"/>
<circle clip-path="url(#clip162)" cx="1727.12" cy="1321.86" r="18" fill="#009af9" fill-rule="evenodd" fill-opacity="1" stroke="#000000" stroke-opacity="1" stroke-width="3.2"/>
<circle clip-path="url(#clip162)" cx="1739.69" cy="1257.33" r="18" fill="#009af9" fill-rule="evenodd" fill-opacity="1" stroke="#000000" stroke-opacity="1" stroke-width="3.2"/>
<circle clip-path="url(#clip162)" cx="1752.26" cy="1192.79" r="18" fill="#009af9" fill-rule="evenodd" fill-opacity="1" stroke="#000000" stroke-opacity="1" stroke-width="3.2"/>
<circle clip-path="url(#clip162)" cx="1764.83" cy="1128.26" r="18" fill="#009af9" fill-rule="evenodd" fill-opacity="1" stroke="#000000" stroke-opacity="1" stroke-width="3.2"/>
<circle clip-path="url(#clip162)" cx="1777.4" cy="1063.73" r="18" fill="#009af9" fill-rule="evenodd" fill-opacity="1" stroke="#000000" stroke-opacity="1" stroke-width="3.2"/>
<circle clip-path="url(#clip162)" cx="1789.98" cy="999.194" r="18" fill="#009af9" fill-rule="evenodd" fill-opacity="1" stroke="#000000" stroke-opacity="1" stroke-width="3.2"/>
<circle clip-path="url(#clip162)" cx="1802.55" cy="934.66" r="18" fill="#009af9" fill-rule="evenodd" fill-opacity="1" stroke="#000000" stroke-opacity="1" stroke-width="3.2"/>
<circle clip-path="url(#clip162)" cx="1815.12" cy="870.126" r="18" fill="#009af9" fill-rule="evenodd" fill-opacity="1" stroke="#000000" stroke-opacity="1" stroke-width="3.2"/>
<circle clip-path="url(#clip162)" cx="1827.69" cy="805.593" r="18" fill="#009af9" fill-rule="evenodd" fill-opacity="1" stroke="#000000" stroke-opacity="1" stroke-width="3.2"/>
<circle clip-path="url(#clip162)" cx="1840.26" cy="741.059" r="18" fill="#009af9" fill-rule="evenodd" fill-opacity="1" stroke="#000000" stroke-opacity="1" stroke-width="3.2"/>
<circle clip-path="url(#clip162)" cx="1852.83" cy="676.526" r="18" fill="#009af9" fill-rule="evenodd" fill-opacity="1" stroke="#000000" stroke-opacity="1" stroke-width="3.2"/>
<circle clip-path="url(#clip162)" cx="1865.4" cy="611.992" r="18" fill="#009af9" fill-rule="evenodd" fill-opacity="1" stroke="#000000" stroke-opacity="1" stroke-width="3.2"/>
<circle clip-path="url(#clip162)" cx="1877.97" cy="547.458" r="18" fill="#009af9" fill-rule="evenodd" fill-opacity="1" stroke="#000000" stroke-opacity="1" stroke-width="3.2"/>
<circle clip-path="url(#clip162)" cx="1890.54" cy="482.925" r="18" fill="#009af9" fill-rule="evenodd" fill-opacity="1" stroke="#000000" stroke-opacity="1" stroke-width="3.2"/>
<circle clip-path="url(#clip162)" cx="1903.11" cy="418.391" r="18" fill="#009af9" fill-rule="evenodd" fill-opacity="1" stroke="#000000" stroke-opacity="1" stroke-width="3.2"/>
<circle clip-path="url(#clip162)" cx="1915.68" cy="353.857" r="18" fill="#009af9" fill-rule="evenodd" fill-opacity="1" stroke="#000000" stroke-opacity="1" stroke-width="3.2"/>
<circle clip-path="url(#clip162)" cx="1928.25" cy="289.324" r="18" fill="#009af9" fill-rule="evenodd" fill-opacity="1" stroke="#000000" stroke-opacity="1" stroke-width="3.2"/>
<circle clip-path="url(#clip162)" cx="1940.82" cy="224.79" r="18" fill="#009af9" fill-rule="evenodd" fill-opacity="1" stroke="#000000" stroke-opacity="1" stroke-width="3.2"/>
<circle clip-path="url(#clip162)" cx="1953.39" cy="160.256" r="18" fill="#009af9" fill-rule="evenodd" fill-opacity="1" stroke="#000000" stroke-opacity="1" stroke-width="3.2"/>
<circle clip-path="url(#clip162)" cx="1965.96" cy="224.79" r="18" fill="#009af9" fill-rule="evenodd" fill-opacity="1" stroke="#000000" stroke-opacity="1" stroke-width="3.2"/>
<circle clip-path="url(#clip162)" cx="1978.53" cy="289.324" r="18" fill="#009af9" fill-rule="evenodd" fill-opacity="1" stroke="#000000" stroke-opacity="1" stroke-width="3.2"/>
<circle clip-path="url(#clip162)" cx="1991.1" cy="353.857" r="18" fill="#009af9" fill-rule="evenodd" fill-opacity="1" stroke="#000000" stroke-opacity="1" stroke-width="3.2"/>
<circle clip-path="url(#clip162)" cx="2003.67" cy="418.391" r="18" fill="#009af9" fill-rule="evenodd" fill-opacity="1" stroke="#000000" stroke-opacity="1" stroke-width="3.2"/>
<circle clip-path="url(#clip162)" cx="2016.24" cy="482.925" r="18" fill="#009af9" fill-rule="evenodd" fill-opacity="1" stroke="#000000" stroke-opacity="1" stroke-width="3.2"/>
<circle clip-path="url(#clip162)" cx="2028.81" cy="547.458" r="18" fill="#009af9" fill-rule="evenodd" fill-opacity="1" stroke="#000000" stroke-opacity="1" stroke-width="3.2"/>
<circle clip-path="url(#clip162)" cx="2041.38" cy="611.992" r="18" fill="#009af9" fill-rule="evenodd" fill-opacity="1" stroke="#000000" stroke-opacity="1" stroke-width="3.2"/>
<circle clip-path="url(#clip162)" cx="2053.96" cy="676.526" r="18" fill="#009af9" fill-rule="evenodd" fill-opacity="1" stroke="#000000" stroke-opacity="1" stroke-width="3.2"/>
<circle clip-path="url(#clip162)" cx="2066.53" cy="741.059" r="18" fill="#009af9" fill-rule="evenodd" fill-opacity="1" stroke="#000000" stroke-opacity="1" stroke-width="3.2"/>
<circle clip-path="url(#clip162)" cx="2079.1" cy="805.593" r="18" fill="#009af9" fill-rule="evenodd" fill-opacity="1" stroke="#000000" stroke-opacity="1" stroke-width="3.2"/>
<circle clip-path="url(#clip162)" cx="2091.67" cy="870.126" r="18" fill="#009af9" fill-rule="evenodd" fill-opacity="1" stroke="#000000" stroke-opacity="1" stroke-width="3.2"/>
<circle clip-path="url(#clip162)" cx="2104.24" cy="934.66" r="18" fill="#009af9" fill-rule="evenodd" fill-opacity="1" stroke="#000000" stroke-opacity="1" stroke-width="3.2"/>
<circle clip-path="url(#clip162)" cx="2116.81" cy="999.194" r="18" fill="#009af9" fill-rule="evenodd" fill-opacity="1" stroke="#000000" stroke-opacity="1" stroke-width="3.2"/>
<circle clip-path="url(#clip162)" cx="2129.38" cy="1063.73" r="18" fill="#009af9" fill-rule="evenodd" fill-opacity="1" stroke="#000000" stroke-opacity="1" stroke-width="3.2"/>
<circle clip-path="url(#clip162)" cx="2141.95" cy="1128.26" r="18" fill="#009af9" fill-rule="evenodd" fill-opacity="1" stroke="#000000" stroke-opacity="1" stroke-width="3.2"/>
<circle clip-path="url(#clip162)" cx="2154.52" cy="1192.79" r="18" fill="#009af9" fill-rule="evenodd" fill-opacity="1" stroke="#000000" stroke-opacity="1" stroke-width="3.2"/>
<circle clip-path="url(#clip162)" cx="2167.09" cy="1257.33" r="18" fill="#009af9" fill-rule="evenodd" fill-opacity="1" stroke="#000000" stroke-opacity="1" stroke-width="3.2"/>
<circle clip-path="url(#clip162)" cx="2179.66" cy="1321.86" r="18" fill="#009af9" fill-rule="evenodd" fill-opacity="1" stroke="#000000" stroke-opacity="1" stroke-width="3.2"/>
<circle clip-path="url(#clip162)" cx="2192.23" cy="1386.4" r="18" fill="#009af9" fill-rule="evenodd" fill-opacity="1" stroke="#000000" stroke-opacity="1" stroke-width="3.2"/>
<circle clip-path="url(#clip162)" cx="2204.8" cy="1321.86" r="18" fill="#009af9" fill-rule="evenodd" fill-opacity="1" stroke="#000000" stroke-opacity="1" stroke-width="3.2"/>
<circle clip-path="url(#clip162)" cx="2217.37" cy="1257.33" r="18" fill="#009af9" fill-rule="evenodd" fill-opacity="1" stroke="#000000" stroke-opacity="1" stroke-width="3.2"/>
<circle clip-path="url(#clip162)" cx="2229.94" cy="1192.79" r="18" fill="#009af9" fill-rule="evenodd" fill-opacity="1" stroke="#000000" stroke-opacity="1" stroke-width="3.2"/>
<circle clip-path="url(#clip162)" cx="2242.51" cy="1128.26" r="18" fill="#009af9" fill-rule="evenodd" fill-opacity="1" stroke="#000000" stroke-opacity="1" stroke-width="3.2"/>
<circle clip-path="url(#clip162)" cx="2255.08" cy="1063.73" r="18" fill="#009af9" fill-rule="evenodd" fill-opacity="1" stroke="#000000" stroke-opacity="1" stroke-width="3.2"/>
<circle clip-path="url(#clip162)" cx="2267.65" cy="999.194" r="18" fill="#009af9" fill-rule="evenodd" fill-opacity="1" stroke="#000000" stroke-opacity="1" stroke-width="3.2"/>
<circle clip-path="url(#clip162)" cx="2280.22" cy="934.66" r="18" fill="#009af9" fill-rule="evenodd" fill-opacity="1" stroke="#000000" stroke-opacity="1" stroke-width="3.2"/>
<circle clip-path="url(#clip162)" cx="2292.79" cy="870.126" r="18" fill="#009af9" fill-rule="evenodd" fill-opacity="1" stroke="#000000" stroke-opacity="1" stroke-width="3.2"/>
</svg>
